<svg xmlns="http://www.w3.org/2000/svg" style="width:0; height:0; visibility:hidden;">
    <symbol id="icon_1" viewBox="0 0 572.4 511.5">
       <path d="M400.4 510.3c-10.2-3.4-19.1-10.8-23.5-19.6l-2.2-4.4-68.8.6c-77.8.6-74.2 1-76.9-6.8-1.2-3.6-1.2-4.4.3-7.7 3.3-6.9 2.3-6.8 59.8-6.8 28.3 0 58.9-.3 68-.7l16.5-.7 2.3-5.6c3.2-7.7 11.3-16.1 19.2-19.7 5.5-2.5 7.4-2.9 15.7-2.9 8.7 0 10.1.3 16.2 3.3 23.2 11.4 28.6 40.7 11.1 60.2-6.6 7.3-14.9 11.1-25.5 11.6-5.2.4-9.7 0-12.2-.8zm19.6-23.1c4.3-2.8 6.9-7.9 6.9-13.5 0-7.9-4.7-14-12.5-16.1-11.1-3.1-22.9 9.1-19.6 20.2 3.4 11.2 15.5 15.7 25.2 9.4zm-274.2 17.2c-14.9-5.2-25.9-20.4-25.9-35.8 0-5.7 2.8-15.1 6.1-20.4 2.4-3.9 2.8-5.4 2.1-7-.5-1.1-16.1-27.9-34.6-59.5-29.6-50.5-33.6-58-33.6-61.6 0-5 3.4-9.1 8.6-10 7.2-1.3 7.1-1.5 44.2 62.1l34.5 59h10.1c9.2 0 10.7.3 16.6 3.1 8.3 3.9 14.5 10.1 18.4 18.4 2.8 5.9 3.1 7.4 3.1 16 0 8.2-.4 10.3-2.7 15.2-8.5 18.1-28.7 26.9-46.9 20.5zm20.3-21.4c6.2-3.1 10-11.7 8-18.3-4.2-14.1-21.5-17.2-29.6-5.3-4.6 6.8-2.8 17.8 3.7 22.4 5.3 3.8 11.8 4.2 17.9 1.2zm282.2-67.3c-1.2-.5-3.1-2.1-4.2-3.6-4.6-5.8-4.6-5.7 29.8-66.7 17.6-31.2 32.7-58.1 33.5-59.7 1.6-3 1.5-3.1-2-7.2-8-9.4-10.5-25.8-5.7-38 3.1-8 10.6-15.9 18.9-20 6.1-3 7.4-3.3 16.2-3.3 8.7 0 10.1.3 16.1 3.2 7.9 3.9 15 11.1 18.7 19 2.3 4.9 2.7 7 2.7 15.2 0 8.7-.3 10.1-3.2 16.1-6.5 13.1-18.3 20.9-33 21.7l-8.2.4-33.8 60c-34.7 61.6-36.2 63.8-41.8 63.7-1 0-2.8-.4-4-.8zM543 269.1c9.4-4.8 11.2-18.4 3.5-26-7.4-7.4-19.2-6.3-25.1 2.3-3.8 5.6-3.6 13.5.5 19.1 1.7 2.3 3.1 4.2 3.2 4.2.1 0 2 .7 4.2 1.5 4.4 1.5 9.3 1.1 13.7-1.1zM273 387.8c-4.4-4.4-4.3-10.1.2-14.7 3.1-3.1 3.7-3.3 13.2-3.9 38-2.6 74.2-22 94.5-50.8 13.1-18.5 21.6-43.1 23.6-67.8.8-9.8 2.2-13.4 6.4-15.5 5.2-2.7 10.6-1.3 13.7 3.4 4.6 7.1-1.7 43.2-11.5 66-16.1 37.4-46.4 64.9-85.6 78-16 5.3-25.7 7.2-39.7 7.9l-11.7.5-3.1-3.1zm6.3-46.1c-5.7-2.5-8.2-11-4.8-16 2.1-3 7.2-5.1 12.6-5.1 6.4 0 20-3.6 28.1-7.3 24.2-11.3 38.2-32.6 41.2-63 .5-5.5 1.2-7.4 3.5-10 2.4-2.7 3.5-3.2 7.4-3.2 3.6 0 5.1.6 7.2 2.6 3.6 3.6 4.1 9.3 2 21.8-5.8 34.6-25.1 59.8-56 72.8-13.7 5.9-35.7 9.8-41.2 7.4zm-3-47c-10.2-2.4-20.6-11.1-25.2-20.8-3.8-8.1-4.3-21.2-1.2-29.5 8.8-23.5 37.7-32.1 58-17.3 9.8 7.2 15 17.7 15 30.5 0 17.6-10.4 31.6-26.9 36.4-5.7 1.7-14.3 2-19.7.7zm13.8-21.1c4.6-1.3 10.5-7.7 11.4-12.4 2.3-12.1-8.6-22.5-20.1-19.4-12.7 3.4-16.5 19.2-6.8 28.3 4.4 4.1 9.4 5.2 15.5 3.5zM27.2 288.3c-10.4-3.4-19.4-11.4-24.1-21.4-2.3-4.9-2.7-7-2.7-15.2s.4-10.3 2.7-15.3c6.3-13.5 18.3-21.6 33.5-22.7l8.2-.6 33.8-60c36.6-64.9 36.3-64.5 43.6-63.1 5.1 1 8.6 5 8.6 10 0 3.6-4.5 12.1-33.5 63.5-18.4 32.7-33.5 59.6-33.5 59.8s1.6 2.2 3.5 4.5c7 8.2 9.9 21.6 7.1 32.6-3 11.8-10.6 21-21.3 25.9-6.7 3.2-19.4 4.1-25.9 2zm19.4-22.8c9.8-5.9 9.9-21.8.1-27.8-7.1-4.3-16.2-3-21.3 3.1-12.1 14.4 5.1 34.4 21.2 24.7zm100.8 4.8c-2.7-1.2-4.5-3.5-5.8-7.7-.7-2.4 1.1-19.3 3.3-30.3 4.4-21.9 14.2-44.5 26.5-60.8 24.4-32.5 66.5-54.6 107.7-56.5l12.7-.6 3.1 3.1c4.5 4.5 4.3 10.1-.3 14.8-3.1 3.1-3.9 3.4-9.2 3.4-3.2 0-9.9.7-14.9 1.5-42.1 6.8-75.7 30.6-93.3 66.1-7.3 14.6-12.4 33.7-13.8 51.4-.8 9.8-2.2 13.4-6.4 15.5-3.6 1.7-5.6 1.8-9.6.1zm48.8-3.6c-1.8-1.1-3.7-2.9-4.2-4-3.1-5.8 1.1-29.6 8-45.7 5.6-13.1 19.3-29.1 32.3-37.7 14.1-9.4 33.5-15.7 49-16 8.8-.2 8.8-.2 11.8 3.1 2.1 2.4 2.9 4.3 2.9 7 0 7.1-5.4 11.2-14.8 11.2-7.1 0-19.6 3.4-28.7 7.9-24 11.9-36.9 31.9-40 62.4-.5 5.4-1.3 7.5-3.4 9.8-3.5 4-8.6 4.7-12.9 2zm299.2-71.9c-2.2-1.4-11.8-17-37.4-60.8l-34.4-58.9H413c-9.5 0-11.2-.3-16.7-2.8-7.7-3.6-15.4-11.3-19.1-19.2-2.4-5.2-2.8-7.2-2.8-15.5s.4-10.3 2.8-15.5c3.7-7.9 11.4-15.6 19.1-19.2C401.7.4 403.6.1 411.9.1c8.1 0 10.3.4 15.1 2.6 13.4 6.2 22.9 20.7 22.9 34.8 0 5.7-2.8 15.1-6.1 20.1l-3 4.6 35 59.8c38.5 65.8 37.8 64.3 32.3 70.5-3.5 4.1-8.5 5-12.7 2.3zM421 51.2c4.3-2.8 6.9-7.9 6.9-13.5 0-7.9-4.7-14-12.5-16.1-11.1-3.1-22.9 9.1-19.6 20.2 3.4 11.2 15.5 15.7 25.2 9.4zm-267.8 23c-22.3-7.3-33.1-32-23.2-53 3.4-7.3 10.2-14.1 17.7-17.8 6.1-3 7.4-3.3 16.2-3.3 8.3 0 10.3.3 15.5 2.8 7.3 3.4 14.8 10.5 18.2 17.1l2.5 4.9 68.8-.6c77.8-.6 74.2-1 76.9 6.8 1.2 3.6 1.2 4.4-.3 7.7-3.3 6.9-2.3 6.8-59.8 6.8-28.3 0-58.9.3-67.9.7l-16.5.7-2.7 6.3c-5.7 13.2-18.3 21.6-33 22.1-5.1.1-9.8-.3-12.4-1.2zM172 52.1c3.6-1.9 6.6-5.8 8-10.6 3.3-10.9-8.6-23-19.6-20-7.8 2.2-12.5 8.2-12.5 16.1 0 12.8 12.7 20.4 24.1 14.5z"/> 
    </symbol>
    <symbol id="icon_2" viewBox="0 0 48 51">
       <path d="M47.5221 22.4197C47.2497 20.2956 46.338 18.6041 45.9552 17.9698C46.2322 13.5504 45.3322 10.2227 43.2793 8.07584C41.6789 6.40242 39.8093 5.92896 38.8599 5.79531C37.4119 2.81522 34.9504 2.23868 33.4543 2.3788C30.6531 -0.161253 28.062 -0.221601 26.3544 0.193064C25.2283 0.46709 24.3467 0.980694 23.7998 1.3679C23.2531 0.980176 22.371 0.46709 21.2452 0.193064C19.5376 -0.222378 16.9465 -0.161771 14.1453 2.3788C12.6476 2.23816 10.1871 2.81522 8.73971 5.79531C7.79028 5.9287 5.92067 6.40216 4.32028 8.07584C2.26685 10.2227 1.36742 13.5504 1.64435 17.9698C1.26155 18.6036 0.35042 20.2956 0.0774804 22.4197C-0.23084 24.8266 0.24002 28.2209 4.10533 30.9749C3.65735 33.5494 4.08139 37.9812 8.3045 40.1604C8.12919 41.097 8.01294 42.7215 8.87166 44.11C9.54682 45.2022 10.6623 45.9207 12.1908 46.2491C12.9626 47.4087 15.6228 51 18.9425 51C18.9635 51 18.985 51 19.0061 50.9995C20.7858 50.9746 22.3939 49.9505 23.7995 47.9508C25.2057 49.95 26.8138 50.9746 28.593 50.9995C31.9372 51.0471 34.6317 47.4159 35.4085 46.2491C36.9371 45.9207 38.0528 45.2025 38.7277 44.11C39.5866 42.7215 39.4699 41.0967 39.2948 40.1604C43.5185 37.9812 43.9425 33.5494 43.4945 30.9749C47.3601 28.2209 47.8312 24.8269 47.5221 22.4197ZM41.98 29.849C41.6608 30.0562 41.5097 30.4364 41.6028 30.799C41.6645 31.0394 43.0529 36.7027 37.8836 38.8595C37.4491 39.0408 37.2302 39.5155 37.3797 39.9517C37.3861 39.9706 37.9982 41.8631 37.1717 43.1988C36.7237 43.9238 35.8908 44.3897 34.6977 44.5832C34.4317 44.6262 34.1992 44.7826 34.0629 45.009C33.3529 46.1887 31.0053 49.232 28.656 49.232C28.643 49.232 28.6292 49.232 28.6156 49.232C27.2028 49.2108 25.8561 48.0756 24.6136 45.858C24.4542 45.5741 24.1142 45.3975 23.7817 45.3975C23.4492 45.3975 23.1438 45.5739 22.9844 45.858C21.7424 48.0756 20.3958 49.2108 18.9824 49.232C16.6305 49.2688 14.2493 46.1957 13.535 45.009C13.3988 44.7826 13.1658 44.6262 12.9003 44.5832C11.7109 44.39 10.8799 43.9263 10.4308 43.2058C9.59418 41.8629 10.2132 39.968 10.2188 39.9514C10.3678 39.5153 10.1494 39.0405 9.71495 38.8592C4.57273 36.7136 5.9361 31.0376 5.99622 30.7988C6.08933 30.4364 5.93823 30.0562 5.619 29.8487C-1.155 25.4519 3.1402 18.9558 3.32535 18.6831C3.43708 18.5199 3.48975 18.3251 3.47565 18.1296C3.17957 14.0987 3.90209 11.1313 5.62272 9.3087C7.27712 7.55654 9.27947 7.51147 9.35795 7.51044C9.72932 7.51044 10.0629 7.29028 10.201 6.95487C11.2172 4.48217 12.85 4.12888 13.6992 4.12888C13.9724 4.12888 14.165 4.16566 14.2286 4.18017C14.5382 4.25528 14.8651 4.16748 15.0907 3.94758C16.9385 2.14932 18.8377 1.45856 20.7357 1.89265C22.1882 2.22495 23.1339 3.11566 23.1403 3.12188C23.3106 3.28764 23.5417 3.38088 23.7822 3.38088H23.8168C24.0576 3.38088 24.2885 3.28764 24.4587 3.12188C24.4678 3.11307 25.3813 2.2524 26.7947 1.90845C28.7151 1.4412 30.6379 2.12627 32.5083 3.94758C32.7288 4.16281 33.0558 4.24958 33.362 4.18224C33.6331 4.12163 36.0547 3.68547 37.3981 6.95513C37.5343 7.28666 37.8684 7.50629 38.2352 7.5107C38.3196 7.51199 40.3219 7.55654 41.9763 9.30896C43.6967 11.1316 44.4189 14.0992 44.1234 18.1298C44.1093 18.3251 44.162 18.5202 44.2737 18.6833C44.2854 18.7002 45.4309 20.3946 45.7193 22.6396C46.0952 25.5687 44.8371 27.9945 41.98 29.849Z"/> <path d="M39.069 6.34727C38.9102 5.88391 38.3949 5.63423 37.9203 5.78808C32.2734 7.6208 32.2083 12.2153 32.2083 12.4098C32.2083 12.8957 32.611 13.2876 33.1098 13.2907C33.1122 13.2907 33.1143 13.2907 33.1162 13.2907C33.6123 13.2907 34.0175 12.8991 34.0241 12.4158C34.0265 12.272 34.1244 8.88345 38.4944 7.4654C38.9703 7.31103 39.2273 6.81063 39.069 6.34727Z"/> <path d="M43.1713 30.0478C42.8672 29.6598 42.2982 29.5844 41.8987 29.8807C40.419 30.9784 39.0809 31.3695 37.9243 31.045C35.8634 30.4671 34.8251 27.8242 34.8153 27.7973C34.641 27.3401 34.1183 27.1062 33.6498 27.2761C33.1795 27.445 32.9388 27.9537 33.1127 28.4116C33.1667 28.5541 34.4694 31.9083 37.4109 32.741C37.8495 32.8653 38.2967 32.9272 38.7516 32.9272C40.1054 32.9272 41.5292 32.3786 42.9997 31.2869C43.3985 30.9911 43.4751 30.4358 43.1713 30.0478Z"/> <path d="M27.8189 30.7852C27.4648 30.44 26.8891 30.44 26.5351 30.7852C26.1805 31.1305 26.1805 31.6902 26.5351 32.0352C29.4834 34.9058 28.8718 37.6793 28.8404 37.8106C28.7223 38.2827 29.0178 38.7591 29.5023 38.8772C29.5757 38.8948 29.6499 38.9036 29.7228 38.9036C30.1296 38.9036 30.5001 38.6353 30.6031 38.2335C30.6432 38.0789 31.5336 34.402 27.8189 30.7852Z"/> <path d="M41.9069 22.5002C41.7361 22.0423 41.2155 21.8053 40.7446 21.9703C40.5608 22.0343 36.2313 23.5082 33.9318 20.5284C32.7373 18.9809 32.2242 17.6556 31.8116 16.5909C31.3053 15.2847 30.8278 14.0506 29.2405 13.9232C28.7451 13.8825 28.3019 14.2448 28.2612 14.7315C28.22 15.2176 28.5916 15.6447 29.0915 15.6849C29.4716 15.7149 29.6145 15.9296 30.1122 17.2143C30.5419 18.3225 31.1298 19.8403 32.4798 21.5898C34.0621 23.6401 36.2696 24.155 38.0897 24.155C39.8518 24.155 41.2506 23.6719 41.3658 23.6315C41.8361 23.4645 42.0777 22.9584 41.9069 22.5002Z"/> <path d="M23.7828 1.61261C23.2816 1.61261 22.8749 2.00862 22.8749 2.49658V46.2801C22.8749 46.7681 23.2816 47.1641 23.7828 47.1641C24.284 47.1641 24.6908 46.7686 24.6908 46.2804V2.49658C24.6908 2.00862 24.284 1.61261 23.7828 1.61261Z"/> <path d="M30.4219 9.22876C30.4148 8.7408 30.0173 8.34478 29.5007 8.35747C28.999 8.36447 28.5986 8.76644 28.6058 9.2544C28.6066 9.30957 28.6561 14.8216 25.8251 18.3174C25.5146 18.701 25.5817 19.2568 25.9759 19.5591C26.1424 19.6873 26.3404 19.7492 26.5375 19.7492C26.8059 19.7492 27.0719 19.6339 27.2507 19.4125C30.4767 15.4295 30.4254 9.48025 30.4219 9.22876Z"/> <path d="M32.2678 36.3088C28.2653 36.3088 26.393 41.6425 26.3153 41.8699C26.1568 42.3328 26.4135 42.8321 26.8889 42.9872C26.9841 43.0186 27.0815 43.0331 27.1767 43.0331C27.5563 43.0331 27.9104 42.7997 28.0381 42.4296C28.4563 41.2188 30.0316 38.0767 32.2681 38.0767C32.7693 38.0767 33.176 37.6807 33.176 37.1927C33.176 36.7048 32.769 36.3088 32.2678 36.3088Z"/> <path d="M33.2907 2.24126C32.8893 1.94987 32.32 2.03094 32.0204 2.42282L29.842 5.27271C29.5427 5.66381 29.6262 6.21784 30.0285 6.50948C30.191 6.62785 30.3807 6.68457 30.5696 6.68457C30.847 6.68457 31.1208 6.5618 31.2987 6.32792L33.4772 3.47803C33.7765 3.08693 33.6929 2.53316 33.2907 2.24126Z"/> <path d="M14.7013 7.9552C12.6987 7.9552 11.0693 9.5416 11.0693 11.4914C11.0693 13.4411 12.6987 15.0275 14.7013 15.0275C16.7039 15.0275 18.3333 13.4411 18.3333 11.4914C18.3333 9.5416 16.7039 7.9552 14.7013 7.9552ZM14.7013 13.2596C13.6997 13.2596 12.8851 12.4665 12.8851 11.4914C12.8851 10.5162 13.6997 9.72316 14.7013 9.72316C15.7029 9.72316 16.5174 10.5162 16.5174 11.4914C16.5172 12.4665 15.7026 13.2596 14.7013 13.2596Z"/> <path d="M8.34496 19.4479C6.34234 19.4479 4.71295 21.0343 4.71295 22.9841C4.71295 24.9339 6.34234 26.5203 8.34496 26.5203C10.3476 26.5203 11.977 24.9339 11.977 22.9841C11.9772 21.0343 10.3476 19.4479 8.34496 19.4479ZM8.34496 24.7523C7.34338 24.7523 6.52882 23.9593 6.52882 22.9841C6.52882 22.009 7.34338 21.2159 8.34496 21.2159C9.34653 21.2159 10.1611 22.009 10.1611 22.9841C10.1611 23.9593 9.34653 24.7523 8.34496 24.7523Z"/> <path d="M17.4253 27.4045C15.4227 27.4045 13.7933 28.9909 13.7933 30.9407C13.7933 32.8905 15.4227 34.4769 17.4253 34.4769C19.428 34.4769 21.0573 32.8905 21.0573 30.9407C21.0573 28.9909 19.428 27.4045 17.4253 27.4045ZM17.4253 32.7089C16.4238 32.7089 15.6092 31.9159 15.6092 30.9407C15.6092 29.9656 16.4238 29.1725 17.4253 29.1725C18.4269 29.1725 19.2415 29.9656 19.2415 30.9407C19.2415 31.9159 18.4266 32.7089 17.4253 32.7089Z"/> <path d="M17.4253 37.1292C15.4227 37.1292 13.7933 38.7156 13.7933 40.6654C13.7933 42.6152 15.4227 44.2016 17.4253 44.2016C19.428 44.2016 21.0573 42.6152 21.0573 40.6654C21.0573 38.7156 19.428 37.1292 17.4253 37.1292ZM17.4253 42.4336C16.4238 42.4336 15.6092 41.6405 15.6092 40.6654C15.6092 39.6902 16.4238 38.8972 17.4253 38.8972C18.4269 38.8972 19.2415 39.6902 19.2415 40.6654C19.2412 41.6405 18.4266 42.4336 17.4253 42.4336Z"/> <path d="M14.7013 13.2595C14.2001 13.2595 13.7933 13.6555 13.7933 14.1435V22.9842C13.7933 23.4722 14.2001 23.8682 14.7013 23.8682C15.203 23.8682 15.6092 23.4727 15.6092 22.9842V14.1435C15.6092 13.6555 15.2025 13.2595 14.7013 13.2595Z"/> <path d="M17.4253 22.1002H11.069C10.5678 22.1002 10.1611 22.4962 10.1611 22.9842C10.1611 23.4721 10.5678 23.8682 11.069 23.8682H17.4251C17.9268 23.8682 18.333 23.4721 18.333 22.9842C18.3333 22.4962 17.9265 22.1002 17.4253 22.1002Z"/> <path d="M17.4254 22.1002C16.9242 22.1002 16.5175 22.4962 16.5175 22.9841V28.2885C16.5175 28.7765 16.9242 29.1725 17.4254 29.1725C17.9271 29.1725 18.3333 28.777 18.3333 28.2885V22.9841C18.3333 22.4962 17.9266 22.1002 17.4254 22.1002Z"/> <path d="M17.4254 32.7089C16.9242 32.7089 16.5175 33.1049 16.5175 33.5928V38.0133C16.5175 38.5012 16.9242 38.8973 17.4254 38.8973C17.9271 38.8973 18.3333 38.5018 18.3333 38.0133V33.5928C18.3333 33.1049 17.9266 32.7089 17.4254 32.7089Z"/> 
    </symbol>
    <symbol id="icon_3" viewBox="0 0 48 48">
       <mask id="path-1-inside-1" fill="white"> <path d="M48 24.7742V4.64516H37.1613V0H10.8387V4.64516H0V24.7742H4.64516V36.4971C3.31338 36.843 2.32258 38.0447 2.32258 39.4839C2.32258 41.1918 3.71144 42.5806 5.41935 42.5806C6.85773 42.5806 8.06023 41.5906 8.40612 40.258H15.4839V41.5906L17.3853 42.2238L16.4887 44.016L19.4679 46.9952L21.2593 46.0993L21.8933 48H26.106L26.7399 46.0993L28.5314 46.9952L31.5106 44.016L30.6139 42.2238L32.5161 41.5906V40.258H39.5939C39.9398 41.5906 41.1423 42.5806 42.5806 42.5806C44.2885 42.5806 45.6774 41.1918 45.6774 39.4839C45.6774 38.0447 44.6866 36.843 43.3548 36.4971V24.7742H48ZM37.1613 23.2258V18.5806H46.4516V23.2258H37.1613ZM13.1613 23.2258H12.3871V17.0323H35.6129V23.2258H13.1613ZM37.1613 12.3871H46.4516V17.0323H37.1613V12.3871ZM35.6129 15.4839H12.3871V9.29032H35.6129V15.4839ZM10.8387 17.0323H1.54839V12.3871H10.8387V17.0323ZM46.4516 6.19355V10.8387H37.1613V6.19355H46.4516ZM35.6129 1.54839V7.74193H12.3871V1.54839H35.6129ZM10.8387 6.19355V10.8387H1.54839V6.19355H10.8387ZM1.54839 18.5806H10.8387V23.2258H1.54839V18.5806ZM5.41935 41.0322C4.5654 41.0322 3.87097 40.3378 3.87097 39.4839C3.87097 38.6299 4.5654 37.9355 5.41935 37.9355C6.27331 37.9355 6.96774 38.6299 6.96774 39.4839C6.96774 40.3378 6.27331 41.0322 5.41935 41.0322ZM8.40612 38.7097C8.12449 37.6266 7.27659 36.7787 6.19355 36.4971V24.7742H23.2258V30.9677H21.8933L21.2593 32.8684L19.4679 31.9725L16.4887 34.9517L17.3853 36.7439L15.4839 37.3771V38.7097H8.40612ZM30.9677 40.4739L29.1887 41.067L29.0587 41.4118C29.0213 41.5101 28.9827 41.6068 28.94 41.7021L28.7899 42.037L29.6269 43.7109L28.2263 45.1115L26.5524 44.2746L26.2171 44.4246C26.1203 44.4681 26.0228 44.5059 25.9238 44.5448L25.5824 44.6756L24.99 46.4516H23.0092L22.4168 44.6756L22.0755 44.5448C21.9764 44.5059 21.8778 44.4674 21.7817 44.4246L21.4468 44.2746L19.7729 45.1115L18.3723 43.7109L19.2093 42.037L19.0592 41.7021C19.0165 41.6068 18.9779 41.5101 18.9405 41.4118L18.8105 41.067L17.0323 40.4739V38.4931L18.8112 37.8999L18.9413 37.5552C18.9787 37.4569 19.0173 37.3601 19.06 37.2649L19.21 36.9299L18.3731 35.256L19.7737 33.8555L21.4476 34.6924L21.7829 34.5423C21.8797 34.4989 21.9772 34.4611 22.0762 34.4221L22.4176 34.2913L23.0099 32.5161H24.9908L25.5832 34.2921L25.9245 34.4229C26.0236 34.4618 26.1222 34.5004 26.2182 34.5431L26.5532 34.6932L28.2271 33.8562L29.6276 35.2568L28.7907 36.9307L28.9408 37.2656C28.9835 37.3609 29.022 37.4576 29.0595 37.5559L29.1895 37.9007L30.9677 38.4938V40.4739ZM44.129 39.4839C44.129 40.3378 43.4346 41.0322 42.5806 41.0322C41.7267 41.0322 41.0322 40.3378 41.0322 39.4839C41.0322 38.6299 41.7267 37.9355 42.5806 37.9355C43.4346 37.9355 44.129 38.6299 44.129 39.4839ZM41.8064 36.4971C40.7234 36.7787 39.8755 37.6266 39.5939 38.7097H32.5161V37.3771L30.6147 36.7439L31.5113 34.9517L28.5321 31.9725L26.7407 32.8684L26.1067 30.9677H24.7742V24.7742H41.8064V36.4971Z"/> </mask> <path d="M48 24.7742V4.64516H37.1613V0H10.8387V4.64516H0V24.7742H4.64516V36.4971C3.31338 36.843 2.32258 38.0447 2.32258 39.4839C2.32258 41.1918 3.71144 42.5806 5.41935 42.5806C6.85773 42.5806 8.06023 41.5906 8.40612 40.258H15.4839V41.5906L17.3853 42.2238L16.4887 44.016L19.4679 46.9952L21.2593 46.0993L21.8933 48H26.106L26.7399 46.0993L28.5314 46.9952L31.5106 44.016L30.6139 42.2238L32.5161 41.5906V40.258H39.5939C39.9398 41.5906 41.1423 42.5806 42.5806 42.5806C44.2885 42.5806 45.6774 41.1918 45.6774 39.4839C45.6774 38.0447 44.6866 36.843 43.3548 36.4971V24.7742H48ZM37.1613 23.2258V18.5806H46.4516V23.2258H37.1613ZM13.1613 23.2258H12.3871V17.0323H35.6129V23.2258H13.1613ZM37.1613 12.3871H46.4516V17.0323H37.1613V12.3871ZM35.6129 15.4839H12.3871V9.29032H35.6129V15.4839ZM10.8387 17.0323H1.54839V12.3871H10.8387V17.0323ZM46.4516 6.19355V10.8387H37.1613V6.19355H46.4516ZM35.6129 1.54839V7.74193H12.3871V1.54839H35.6129ZM10.8387 6.19355V10.8387H1.54839V6.19355H10.8387ZM1.54839 18.5806H10.8387V23.2258H1.54839V18.5806ZM5.41935 41.0322C4.5654 41.0322 3.87097 40.3378 3.87097 39.4839C3.87097 38.6299 4.5654 37.9355 5.41935 37.9355C6.27331 37.9355 6.96774 38.6299 6.96774 39.4839C6.96774 40.3378 6.27331 41.0322 5.41935 41.0322ZM8.40612 38.7097C8.12449 37.6266 7.27659 36.7787 6.19355 36.4971V24.7742H23.2258V30.9677H21.8933L21.2593 32.8684L19.4679 31.9725L16.4887 34.9517L17.3853 36.7439L15.4839 37.3771V38.7097H8.40612ZM30.9677 40.4739L29.1887 41.067L29.0587 41.4118C29.0213 41.5101 28.9827 41.6068 28.94 41.7021L28.7899 42.037L29.6269 43.7109L28.2263 45.1115L26.5524 44.2746L26.2171 44.4246C26.1203 44.4681 26.0228 44.5059 25.9238 44.5448L25.5824 44.6756L24.99 46.4516H23.0092L22.4168 44.6756L22.0755 44.5448C21.9764 44.5059 21.8778 44.4674 21.7817 44.4246L21.4468 44.2746L19.7729 45.1115L18.3723 43.7109L19.2093 42.037L19.0592 41.7021C19.0165 41.6068 18.9779 41.5101 18.9405 41.4118L18.8105 41.067L17.0323 40.4739V38.4931L18.8112 37.8999L18.9413 37.5552C18.9787 37.4569 19.0173 37.3601 19.06 37.2649L19.21 36.9299L18.3731 35.256L19.7737 33.8555L21.4476 34.6924L21.7829 34.5423C21.8797 34.4989 21.9772 34.4611 22.0762 34.4221L22.4176 34.2913L23.0099 32.5161H24.9908L25.5832 34.2921L25.9245 34.4229C26.0236 34.4618 26.1222 34.5004 26.2182 34.5431L26.5532 34.6932L28.2271 33.8562L29.6276 35.2568L28.7907 36.9307L28.9408 37.2656C28.9835 37.3609 29.022 37.4576 29.0595 37.5559L29.1895 37.9007L30.9677 38.4938V40.4739ZM44.129 39.4839C44.129 40.3378 43.4346 41.0322 42.5806 41.0322C41.7267 41.0322 41.0322 40.3378 41.0322 39.4839C41.0322 38.6299 41.7267 37.9355 42.5806 37.9355C43.4346 37.9355 44.129 38.6299 44.129 39.4839ZM41.8064 36.4971C40.7234 36.7787 39.8755 37.6266 39.5939 38.7097H32.5161V37.3771L30.6147 36.7439L31.5113 34.9517L28.5321 31.9725L26.7407 32.8684L26.1067 30.9677H24.7742V24.7742H41.8064V36.4971Z" stroke-width="0.4" mask="url(#path-1-inside-1)"/> <path d="M14.0354 3.1968H15.3838V4.54519H14.0354V3.1968Z" stroke-width="0.2"/> <path d="M17.1322 3.1968H18.4806V4.54519H17.1322V3.1968Z" stroke-width="0.2"/> <path d="M32.6161 3.1968H33.9645V6.09358H32.6161V3.1968Z" stroke-width="0.2"/> <path d="M29.5193 3.1968H30.8677V6.09358H29.5193V3.1968Z" stroke-width="0.2"/> <path d="M26.4226 3.1968H27.771V6.09358H26.4226V3.1968Z" stroke-width="0.2"/> <path d="M14.0354 10.9387H15.3838V12.2871H14.0354V10.9387Z" stroke-width="0.2"/> <path d="M17.1322 10.9387H18.4806V12.2871H17.1322V10.9387Z" stroke-width="0.2"/> <path d="M32.6161 10.9387H33.9645V13.8355H32.6161V10.9387Z" stroke-width="0.2"/> <path d="M29.5193 10.9387H30.8677V13.8355H29.5193V10.9387Z" stroke-width="0.2"/> <path d="M26.4226 10.9387H27.771V13.8355H26.4226V10.9387Z" stroke-width="0.2"/> <path d="M14.0354 18.6807H15.3838V20.0291H14.0354V18.6807Z" stroke-width="0.2"/> <path d="M17.1322 18.6807H18.4806V20.0291H17.1322V18.6807Z" stroke-width="0.2"/> <path d="M32.6161 18.6807H33.9645V21.5775H32.6161V18.6807Z" stroke-width="0.2"/> <path d="M29.5193 18.6807H30.8677V21.5775H29.5193V18.6807Z" stroke-width="0.2"/> <path d="M26.4226 18.6807H27.771V21.5775H26.4226V18.6807Z" stroke-width="0.2"/> <path d="M43.4548 7.842H44.8032V9.19039H43.4548V7.842Z" stroke-width="0.2"/> <path d="M40.3581 7.842H41.7065V9.19039H40.3581V7.842Z" stroke-width="0.2"/> <path d="M43.4548 14.0354H44.8032V15.3838H43.4548V14.0354Z" stroke-width="0.2"/> <path d="M40.3581 14.0354H41.7065V15.3838H40.3581V14.0354Z" stroke-width="0.2"/> <path d="M43.4548 20.2291H44.8032V21.5775H43.4548V20.2291Z" stroke-width="0.2"/> <path d="M40.3581 20.2291H41.7065V21.5775H40.3581V20.2291Z" stroke-width="0.2"/> <path d="M6.29354 7.842H7.64193V9.19039H6.29354V7.842Z" stroke-width="0.2"/> <path d="M3.1968 7.842H4.54519V9.19039H3.1968V7.842Z" stroke-width="0.2"/> <path d="M6.29354 14.0354H7.64193V15.3838H6.29354V14.0354Z" stroke-width="0.2"/> <path d="M3.1968 14.0354H4.54519V15.3838H3.1968V14.0354Z" stroke-width="0.2"/> <path d="M6.29354 20.2291H7.64193V21.5775H6.29354V20.2291Z" stroke-width="0.2"/> <path d="M3.1968 20.2291H4.54519V21.5775H3.1968V20.2291Z" stroke-width="0.2"/> <path d="M20.2291 39.4839C20.2291 37.4048 21.921 35.7129 24.0001 35.7129C26.0792 35.7129 27.771 37.4048 27.771 39.4839C27.771 41.563 26.0792 43.2548 24.0001 43.2548C21.921 43.2548 20.2291 41.563 20.2291 39.4839ZM21.5775 39.4839C21.5775 40.8195 22.6645 41.9065 24.0001 41.9065C25.3357 41.9065 26.4226 40.8195 26.4226 39.4839C26.4226 38.1483 25.3357 37.0613 24.0001 37.0613C22.6645 37.0613 21.5775 38.1483 21.5775 39.4839Z" stroke-width="0.2"/> 
    </symbol>
    <symbol id="icon_4" viewBox="0 0 53.4 53.4">
       <path d="M52.4 25.9H39.9v-1.8h3.4c.4 0 .8-.3.8-.8 0-.4-.3-.8-.8-.8h-3.4v-1.8h2.3c.9 0 1.7-.3 2.3-1l5.1-5.1c.3.2.7.3 1.1.3.7 0 1.3-.3 1.7-.7.5-.5.7-1.1.7-1.7 0-.7-.3-1.3-.7-1.7-.5-.5-1.1-.7-1.7-.7-.7 0-1.3.3-1.7.7-.5.5-.7 1.1-.7 1.7 0 .4.1.8.3 1.1l-5.1 5.1c-.3.3-.8.5-1.2.5H40v-1.7c0-2.3-1.8-4.1-4.1-4.1h-1.7V6.6c1-.3 1.7-1.2 1.7-2.3 0-1.3-1.1-2.4-2.4-2.4-1.3 0-2.4 1.1-2.4 2.4 0 1.1.7 2 1.7 2.3v6.9H31v-3.4c0-.4-.3-.8-.8-.8-.4 0-.8.3-.8.8v3.4h-1.8V1c0-.4-.3-.8-.8-.8-.4 0-.8.3-.8.8v12.5h-1.8v-3.4c0-.4-.3-.8-.8-.8s-.8.3-.8.8v3.4h-1.8v-2.3c0-.9-.3-1.7-1-2.3l-5.1-5.1c.5-.9.3-2-.5-2.8-.9-.9-2.5-.9-3.4 0-.9.9-.9 2.5 0 3.4.5.5 1.1.7 1.7.7.4 0 .7-.1 1.1-.3l5.1 5.1c.3.3.5.8.5 1.2v2.3h-1.7c-.3 0-.7 0-1 .1-.4.1-.7.5-.6.9.1.4.5.7.9.6.2-.1.4-.1.6-.1h18.3c1.4 0 2.5 1.1 2.5 2.5v18.3c0 .2 0 .4-.1.6-.1.4.1.8.6.9h.2c.3 0 .7-.2.8-.6.1-.3.1-.7.1-1v-1.7h6.9c.3 1 1.2 1.7 2.3 1.7 1.3 0 2.4-1.1 2.4-2.4 0-1.3-1.1-2.4-2.4-2.4-1.1 0-2 .7-2.3 1.7h-6.9v-1.8h3.4c.4 0 .8-.3.8-.8 0-.4-.3-.8-.8-.8h-3.4v-1.8h12.5c.4 0 .8-.3.8-.8.1-.2-.2-.6-.7-.6zM50.1 12c.2-.2.4-.3.6-.3.2 0 .5.1.6.3.2.2.3.4.3.6 0 .2-.1.5-.3.6-.2.2-.4.3-.6.3-.2 0-.5-.1-.6-.3-.2-.2-.3-.4-.3-.6.1-.2.2-.5.3-.6zM13.2 3.3c-.3.3-.9.3-1.2 0-.3-.3-.3-.9 0-1.2.2-.2.4-.3.6-.3.2 0 .5.1.6.3.4.3.4.8 0 1.2zm20.1 1.9c-.5 0-.9-.4-.9-.9s.4-.9.9-.9.9.4.9.9-.4.9-.9.9zm15.8 27.3c.5 0 .9.4.9.9s-.4.9-.9.9-.9-.4-.9-.9.4-.9.9-.9zM42.5 49c-.8-.8-1.9-.9-2.8-.5l-5.1-5.1c-.3-.3-.5-.8-.5-1.2v-2.3h1.7c.3 0 .7 0 1-.1.4-.1.7-.5.6-.9-.1-.4-.5-.7-.9-.6-.2.1-.4.1-.6.1H17.6c-1.4 0-2.5-1.1-2.5-2.5V17.6c0-.2 0-.4.1-.6.1-.4-.1-.8-.6-.9-.4-.1-.8.1-.9.6-.1.3-.1.7-.1 1v1.7h-7c-.3-1-1.2-1.7-2.3-1.7-1.3 0-2.4 1.1-2.4 2.4 0 1.3 1.1 2.4 2.4 2.4 1.1 0 2-.7 2.3-1.7h6.9v1.8h-3.4c-.4 0-.8.3-.8.8 0 .4.3.8.8.8h3.4V26H1c-.4 0-.8.3-.8.8s.3.8.8.8h12.5v1.8h-3.4c-.4 0-.8.3-.8.8 0 .4.3.8.8.8h3.4v1.8h-2.3c-.9 0-1.7.3-2.3 1l-5.1 5.1c-.3-.2-.7-.3-1.1-.3-.7 0-1.3.3-1.7.7-.5.5-.7 1.1-.7 1.7s.3 1.3.7 1.7c.4.3 1 .5 1.6.5.7 0 1.3-.3 1.7-.7.5-.5.7-1.1.7-1.7 0-.4-.1-.8-.3-1.1l5.1-5.1c.3-.3.8-.5 1.2-.5h2.3v1.7c0 2.3 1.8 4.1 4.1 4.1h1.7v6.9c-1 .3-1.7 1.2-1.7 2.3 0 1.3 1.1 2.4 2.4 2.4 1.3 0 2.4-1.1 2.4-2.4 0-1.1-.7-2-1.7-2.3v-6.9h1.8v3.4c0 .4.3.8.8.8.4 0 .8-.3.8-.8v-3.4h1.8v12.5c0 .4.3.8.8.8.4 0 .8-.3.8-.8V39.9h1.8v3.4c0 .4.3.8.8.8s.8-.3.8-.8v-3.4h1.8v2.3c0 .9.3 1.7 1 2.3l5.1 5.1c-.5.9-.3 2 .5 2.8.5.5 1.1.7 1.7.7.6 0 1.2-.2 1.7-.7 1-.9 1-2.4 0-3.4zM4.3 20.9c-.5 0-.9-.4-.9-.9s.4-.9.9-.9.9.4.9.9-.4.9-.9.9zm-1 20.5c-.2.2-.4.3-.6.3s-.5-.1-.7-.3c-.2-.2-.3-.4-.3-.6 0-.2.1-.5.3-.6.2-.2.4-.3.6-.3s.5.1.6.3c.2.2.3.4.3.6 0 .2-.1.5-.2.6zm17.6 7.7c0 .5-.4.9-.9.9s-.9-.4-.9-.9.4-.9.9-.9.9.4.9.9zm20.5 2.3c-.3.3-.9.3-1.2 0-.3-.3-.3-.9 0-1.2.2-.2.4-.3.6-.3s.5.1.6.3c.4.3.4.8 0 1.2z" class="st0"/> <path d="M23.5 31.2v-9.9h5.8v1.2h-4.4v3.1h3.5v1.2h-3.5V30h4.6v1.2h-6z" class="st0"/> <path d="M39.9 25.9h-.2v.2h.2v-.2zm0-1.7V24h-.2v.2h.2zm0-1.6h-.2v.2h.2v-.2zm0-1.8v-.2h-.2v.2h.2zm4.7-.9l-.1-.1.1.1zm5.1-5.1l.1-.2-.1-.1-.1.1.1.2zm2.8-.5l.1.1-.1-.1zm0-3.4l-.2.1.2-.1zm-3.5 0l-.1-.1.1.1zm-.4 2.8l.1.1.1-.1-.1-.1-.1.1zm-5.1 5.1l-.1-.1.1.1zm-3.6.5h-.2v.2h.2v-.2zm-5.8-5.8h-.2v.2h.2v-.2zm0-6.9l-.1-.2h-.1v.1h.2zm-1.5 0h.2v-.1h-.1l-.1.1zm0 6.9v.2h.2v-.2h-.2zm-1.8 0h-.2v.2h.2v-.2zm-1.6 0v.2h.2v-.2h-.2zm-1.7 0h-.2v.2h.2v-.2zm-1.6 0v.2h.2v-.2h-.2zm-1.7 0H24v.2h.2v-.2zm-1.6 0v.2h.2v-.2h-.2zm-1.8 0h-.2v.2h.2v-.2zm-.9-4.7l-.2.2.2-.2zm-5.1-5.1l-.2-.1-.1.1.1.1.2-.1zM14.3.9l.1-.1-.1.1zm-3.4 0l-.1-.1.1.1zm0 3.5l-.1.1.1-.1zm2.8.4l.1-.1-.1-.1-.1.1.1.1zm5.1 5.1l-.1.1.1-.1zm.5 3.6v.2h.2v-.2h-.2zm-2.8.1v-.2.2zm.4 1.5v-.2.2zm21.4 21.4h.2-.2zm.5.9v-.2.2zm1-.6h-.2.2zm.1-2.7v-.2h-.2v.2h.2zm6.9 0l.2-.1v-.1h-.1v.2zm0-1.5v.2h.1v-.1l-.1-.1zm-6.9 0h-.2v.2h.2v-.2zm0-1.8v-.2h-.2v.2h.2zm0-1.6h-.2v.2h.2v-.2zm0-1.7v-.2h-.2v.2h.2zM50.1 12l.1.1-.1-.1zM13.2 3.3l.1.1-.1-.1zm-1.2 0l-.1.1.1-.1zM12 2l.1.1L12 2zm36.2 31.3h.2-.2zM42.5 49l-.1.1.1-.1zm-2.8-.4l-.1.1.1.1.1-.1-.1-.1zm-5.1-5.1l.1-.1-.1.1zm-.5-3.6v-.2h-.2v.2h.2zm2.8-.1v.2-.2zm.5-1h.2-.2zm-.9-.5v-.2.2zM15.1 16.9h-.2.2zm-.5-.9v-.2.2zm-1 .5h.2-.2zm-.1 2.8v.2h.2v-.2h-.2zm-6.9 0l-.2.1v.1h.1v-.2zm0 1.5v-.2h-.1v.1l.1.1zm6.9 0h.2v-.2h-.2v.2zm0 1.8v.2h.2v-.2h-.2zm0 1.6h.2V24h-.2v.2zm0 1.7v.2h.2v-.2h-.2zm0 1.6h.2v-.2h-.2v.2zm0 1.7v.2h.2v-.2h-.2zm0 1.6h.2v-.2h-.2v.2zm0 1.8v.2h.2v-.2h-.2zm-4.7.9l.2.2-.2-.2zm-5.1 5.1l-.1.2.1.1.1-.1-.1-.2zm-2.8.5L.8 39l.1.1zm0 3.4l.1-.1-.1.1zm3.5 0l.1.1-.1-.1zm.4-2.8l-.1-.1-.1.1.1.1.1-.1zm5.1-5.1l.1.1-.1-.1zm3.6-.5h.2v-.2h-.2v.2zm5.8 5.8h.2v-.2h-.2v.2zm0 6.9l.1.2h.1v-.1h-.2zm1.5 0h-.2v.1h.1l.1-.1zm0-6.9v-.2h-.2v.2h.2zm1.8 0h.2v-.2h-.2v.2zm1.6 0v-.2H24v.2h.2zm1.7 0h.2v-.2h-.2v.2zm1.6 0v-.2h-.2v.2h.2zm1.7 0h.2v-.2h-.2v.2zm1.6 0v-.2h-.2v.2h.2zm1.8 0h.2v-.2h-.2v.2zm.9 4.7l.1-.1-.1.1zm5.1 5.1l.2.1.1-.1-.1-.1-.2.1zm.5 2.8l.1-.1-.1.1zm3.4 0l-.1-.1.1.1zM5.2 20.1H5h.2zM3.3 41.4l-.1-.1.1.1zm16.8 6.8v.2-.2zm21.3 3.2l.1.1-.1-.1zm-1.2 0l-.2.1.2-.1zm0-1.3L40 50l.2.1zM23.5 31.2h-.2v.2h.2v-.2zm0-9.9v-.2h-.2v.2h.2zm5.8 0h.2v-.2h-.2v.2zm0 1.2v.2h.2v-.2h-.2zm-4.4 0v-.2h-.2v.2h.2zm0 3.1h-.2v.2h.2v-.2zm3.5 0h.2v-.2h-.2v.2zm0 1.2v.2h.2v-.2h-.2zm-3.5 0v-.2h-.2v.2h.2zm0 3.2h-.2v.2h.2V30zm4.6 0h.2v-.2h-.2v.2zm0 1.2v.2h.2v-.2h-.2zm22.9-5.5H39.9v.4h12.5v-.4zm-12.3.2v-1.8h-.4v1.8h.4zm-.2-1.5h3.4V24h-3.4v.4zm3.4 0c.5 0 1-.4 1-1h-.4c0 .3-.3.6-.6.6v.4zm1-1c0-.5-.4-1-1-1v.4c.3 0 .6.3.6.6h.4zm-1-1h-3.4v.4h3.4v-.4zm-3.2.2v-1.8h-.4v1.8h.4zm-.2-1.6h2.3v-.4h-2.3v.4zm2.4 0c.9 0 1.8-.4 2.5-1l-.3-.3c-.6.6-1.3.9-2.2.9v.4zm2.4-1l5.1-5.1-.3-.3-5.1 5.1.3.3zm4.9-5c.4.2.8.3 1.2.3v-.4c-.4 0-.7-.1-1-.2l-.2.3zm1.2.2c.7 0 1.4-.3 1.9-.8l-.3-.3c-.4.4-1 .7-1.6.7v.4zm1.8-.7c.5-.5.8-1.2.8-1.9H53c0 .6-.2 1.2-.7 1.6l.3.3zm.8-1.9c0-.7-.3-1.4-.8-1.9l-.3.3c.4.4.7 1 .7 1.6h.4zm-.8-1.9c-.5-.5-1.2-.8-1.9-.8v.4c.6 0 1.2.2 1.6.7l.3-.3zm-1.8-.7c-.7 0-1.4.3-1.9.8l.3.3c.4-.4 1-.7 1.6-.7V10zm-1.9.7c-.5.5-.8 1.2-.8 1.9h.4c0-.6.2-1.2.7-1.6l-.3-.3zm-.8 1.9c0 .4.1.8.3 1.2l.4-.2c-.2-.3-.2-.6-.2-1h-.5zm.3.9l-5.1 5.1.3.3 5.1-5.1-.3-.3zm-5.1 5.1c-.3.3-.7.4-1.1.4v.4c.5 0 1-.2 1.4-.6l-.3-.2zm-1 .5H40v.4h2.3v-.4zm-2.2.2v-1.7h-.4v1.7h.4zm0-1.7c0-2.4-1.9-4.3-4.3-4.3v.4c2.1 0 3.9 1.7 3.9 3.9h.4zm-4.3-4.3h-1.7v.4h1.7v-.4zm-1.5.2V6.6h-.4v6.9h.4zm-.1-6.7c1-.4 1.8-1.3 1.8-2.5h-.4c0 1-.6 1.8-1.5 2.1l.1.4zM36 4.3c0-1.5-1.2-2.6-2.6-2.6v.4c1.2 0 2.2 1 2.2 2.2h.4zm-2.7-2.6c-1.5 0-2.6 1.2-2.6 2.6h.4c0-1.2 1-2.2 2.2-2.2v-.4zm-2.6 2.6c0 1.2.8 2.1 1.8 2.5l.1-.4c-.9-.3-1.5-1.1-1.5-2.1h-.4zm1.7 2.3v6.9h.4V6.6h-.4zm.2 6.7h-1.8v.4h1.8v-.4zm-1.6.2v-3.4h-.4v3.4h.4zm0-3.4c0-.5-.4-1-1-1v.4c.3 0 .6.3.6.6h.4zm-1-1c-.5 0-1 .4-1 1h.4c0-.3.3-.6.6-.6v-.4zm-1 1v3.4h.4v-3.4H29zm.2 3.2h-1.8v.4h1.8v-.4zm-1.5.2V1h-.4v12.5h.4zm0-12.5c0-.5-.4-1-1-1v.4c.3 0 .6.3.6.6h.4zm-1-1c-.5 0-1 .4-1 1h.4c0-.3.3-.6.6-.6V0zm-1 1v12.5h.4V1h-.4zm.2 12.3h-1.8v.4h1.8v-.4zm-1.5.2v-3.4H24v3.4h.4zm0-3.4c0-.5-.4-1-1-1v.4c.3 0 .6.3.6.6h.4zm-1-1c-.5 0-1 .4-1 1h.4c0-.3.3-.6.6-.6v-.4zm-1 1v3.4h.4v-3.4h-.4zm.2 3.2h-1.8v.4h1.8v-.4zm-1.6.2v-2.3h-.4v2.3h.4zm0-2.4c0-.9-.4-1.8-1-2.5l-.3.4c.6.6.9 1.3.9 2.2h.4zm-1-2.4l-5.1-5.1-.3.3L19.7 9l.3-.3zm-5-4.9c.5-1 .3-2.2-.5-3l-.3.3c.7.7.8 1.7.4 2.6l.4.1zm-.5-3c-1-1-2.7-1-3.7 0l.2.3c.9-.9 2.3-.9 3.2 0l.3-.3zm-3.8 0c-1 1-1 2.7 0 3.7l.3-.3c-.9-.9-.9-2.3 0-3.2l-.3-.2zm0 3.7c.5.5 1.2.8 1.9.8v-.4c-.6 0-1.1-.2-1.6-.7l-.3.3zm1.9.8c.4 0 .8-.1 1.2-.3l-.2-.4c-.3.2-.7.2-1 .2v.5zm.9-.3l5.1 5.1.3-.3-5.1-5.1-.3.3zm5.1 5.1c.3.3.4.7.4 1.1h.4c0-.5-.2-1-.6-1.4l-.2.3zm.5 1v2.3h.4v-2.3h-.4zm.2 2.2h-1.7v.4h1.7v-.4zm-1.7 0c-.4 0-.7 0-1.1.1l.1.4c.3-.1.6-.1 1-.1v-.4zm-1.1.1c-.5.1-.8.7-.7 1.2l.4-.1c-.1-.3.1-.6.4-.7l-.1-.4zm-.7 1.2c.1.5.7.8 1.2.7l-.1-.4c-.3.1-.6-.1-.7-.4l-.4.1zm1.2.7c.2 0 .4-.1.6-.1v-.4c-.2 0-.5 0-.7.1l.1.4zm.6-.1h18.3v-.4H17.6v.4zm18.2 0c1.3 0 2.3 1.1 2.3 2.3h.4c0-1.5-1.2-2.7-2.7-2.7v.4zm2.4 2.4v18.3h.4V17.6h-.4zm0 18.2c0 .2 0 .4-.1.6l.4.1c.1-.2.1-.5.1-.7h-.4zm-.1.6c-.1.5.2 1.1.7 1.2l.1-.4c-.3-.1-.5-.4-.4-.7l-.4-.1zm.7 1.2h.2v-.4h-.1l-.1.4zm.2 0c.4 0 .8-.3.9-.7l-.4-.1c-.1.3-.3.4-.6.4v.4zm1-.7c.1-.3.1-.7.1-1.1h-.4c0 .3 0 .7-.1 1l.4.1zm.1-1.1v-1.7h-.4v1.7h.4zm-.2-1.5h6.9v-.4h-6.9v.4zm6.7-.1c.4 1 1.3 1.8 2.5 1.8v-.4c-1 0-1.8-.6-2.1-1.5l-.4.1zm2.5 1.8c1.5 0 2.6-1.2 2.6-2.6h-.4c0 1.2-1 2.2-2.2 2.2v.4zm2.6-2.7c0-1.5-1.2-2.6-2.6-2.6v.4c1.2 0 2.2 1 2.2 2.2h.4zm-2.6-2.6c-1.2 0-2.1.8-2.5 1.8l.4.1c.3-.9 1.1-1.5 2.1-1.5v-.4zm-2.3 1.7h-6.9v.4h6.9v-.4zm-6.7.2v-1.8h-.4v1.8h.4zm-.2-1.6h3.4v-.4h-3.4v.4zm3.4 0c.5 0 1-.4 1-1h-.4c0 .3-.3.6-.6.6v.4zm1-1c0-.5-.4-1-1-1v.4c.3 0 .6.3.6.6h.4zm-1-1h-3.4v.4h3.4V29zm-3.2.2v-1.8h-.4v1.8h.4zm-.2-1.5h12.5v-.4H39.9v.4zm12.5 0c.5 0 1-.4 1-1H53c0 .3-.3.6-.6.6v.4zm1-1c0-.5-.4-1-1-1v.4c.3 0 .6.3.6.6h.4zm-3.1-14.6c.1-.1.3-.2.5-.2v-.4c-.3 0-.6.1-.8.3l.3.3zm.5-.2c.2 0 .4.1.5.2l.3-.3c-.2-.2-.5-.3-.8-.3v.4zm.4.2c.1.1.2.3.2.5h.4c0-.3-.1-.6-.3-.8l-.3.3zm.2.5c0 .2-.1.4-.2.5l.3.3c.2-.2.3-.5.3-.8h-.4zm-.2.5c-.1.1-.3.2-.5.2v.4c.3 0 .6-.1.8-.3l-.3-.3zm-.4.2c-.2 0-.4-.1-.5-.2l-.3.3c.2.2.5.3.8.3v-.4zm-.5-.2c-.1-.1-.2-.3-.2-.5h-.4c0 .3.1.6.3.8l.3-.3zm-.2-.5c0-.2.1-.4.2-.5l-.3-.3c-.2.2-.3.5-.3.8h.4zm-37-9.5c-.3.3-.7.3-1 0l-.3.3c.4.4 1.1.4 1.5 0l-.2-.3zm-1 0c-.3-.3-.3-.7 0-1l-.3-.3c-.4.4-.4 1.1 0 1.5l.3-.2zm0-.9c.1-.2.3-.2.5-.2v-.4c-.3 0-.6.1-.8.3l.3.3zm.5-.2c.2 0 .4.1.5.2l.3-.3c-.2-.2-.5-.3-.8-.3V2zm.5.2c.3.3.3.7 0 1l.3.3c.4-.4.4-1.1 0-1.5l-.3.2zM33.3 5c-.4 0-.7-.3-.7-.7h-.4c0 .6.5 1.1 1.1 1.1V5zm-.6-.7c0-.4.3-.7.7-.7v-.4c-.6 0-1.1.5-1.1 1.1h.4zm.6-.7c.4 0 .7.3.7.7h.4c0-.6-.5-1.1-1.1-1.1v.4zm.7.7c0 .4-.3.7-.7.7v.4c.6 0 1.1-.5 1.1-1.1H34zm15.1 28.4c.4 0 .7.3.7.7h.4c0-.6-.5-1.1-1.1-1.1v.4zm.7.6c0 .4-.3.7-.7.7v.4c.6 0 1.1-.5 1.1-1.1h-.4zm-.7.7c-.4 0-.7-.3-.7-.7H48c0 .6.5 1.1 1.1 1.1V34zm-.7-.7c0-.4.3-.7.7-.7v-.4c-.6 0-1.1.5-1.1 1.1h.4zm-5.7 15.6c-.8-.8-2-1-3-.5l.2.4c.8-.4 1.9-.3 2.6.4l.2-.3zm-2.8-.5l-5.1-5.1-.3.3 5.1 5.1.3-.3zm-5.1-5.1c-.3-.3-.4-.7-.4-1.1H34c0 .5.2 1 .6 1.4l.2-.3zm-.5-1V40h-.4v2.3h.4zm-.2-2.2h1.7v-.4h-1.7v.4zm1.7 0c.4 0 .7 0 1.1-.1l-.1-.4c-.3.1-.6.1-1 .1v.4zm1.1-.1c.5-.1.8-.7.7-1.2l-.4.1c.1.3-.1.6-.4.7l.1.4zm.7-1.2c-.1-.5-.7-.8-1.2-.7l.1.4c.3-.1.6.1.7.4l.4-.1zm-1.2-.7c-.2 0-.4.1-.6.1v.4c.2 0 .5 0 .7-.1l-.1-.4zm-.6.1H17.6v.4h18.3v-.4zm-18.2 0c-1.3 0-2.3-1.1-2.3-2.3h-.4c0 1.5 1.2 2.7 2.7 2.7v-.4zm-2.4-2.4V17.6h-.4v18.3h.4zm0-18.2c0-.2 0-.4.1-.6l-.4-.1c-.1.2-.1.5-.1.7h.4zm.1-.6c.1-.5-.2-1.1-.7-1.2l-.1.4c.3.1.5.4.4.7l.4.1zm-.7-1.2c-.5-.1-1.1.2-1.2.7l.4.1c.1-.3.4-.5.7-.4l.1-.4zm-1.2.7c-.1.3-.1.7-.1 1.1h.4c0-.3 0-.7.1-1l-.4-.1zm-.1 1.1v1.7h.4v-1.7h-.4zm.2 1.5H6.6v.4h6.9v-.4zm-6.7.1c-.4-1-1.3-1.8-2.5-1.8v.4c1 0 1.8.6 2.1 1.5l.4-.1zm-2.5-1.8c-1.5 0-2.6 1.2-2.6 2.6h.4c0-1.2 1-2.2 2.2-2.2v-.4zm-2.6 2.7c0 1.5 1.2 2.6 2.6 2.6v-.4c-1.2 0-2.2-1-2.2-2.2h-.4zm2.6 2.6c1.2 0 2.1-.8 2.5-1.8l-.4-.1c-.3.9-1.1 1.5-2.1 1.5v.4zM6.6 21h6.9v-.4H6.6v.4zm6.7-.2v1.8h.4v-1.8h-.4zm.2 1.6h-3.4v.4h3.4v-.4zm-3.4 0c-.5 0-1 .4-1 1h.4c0-.3.3-.6.6-.6v-.4zm-1 1c0 .5.4 1 1 1V24c-.3 0-.6-.3-.6-.6h-.4zm1 1h3.4V24h-3.4v.4zm3.2-.2V26h.4v-1.8h-.4zm.2 1.5H1v.4h12.5v-.4zM1 25.7c-.5 0-1 .4-1 1h.4c0-.3.3-.6.6-.6v-.4zm-1 1c0 .5.4 1 1 1v-.4c-.3 0-.6-.3-.6-.6H0zm1 1h12.5v-.4H1v.4zm12.3-.2v1.8h.4v-1.8h-.4zm.2 1.5h-3.4v.4h3.4V29zm-3.4 0c-.5 0-1 .4-1 1h.4c0-.3.3-.6.6-.6V29zm-1 1c0 .5.4 1 1 1v-.4c-.3 0-.6-.3-.6-.6h-.4zm1 1h3.4v-.4h-3.4v.4zm3.2-.2v1.8h.4v-1.8h-.4zm.2 1.6h-2.3v.4h2.3v-.4zm-2.4 0c-.9 0-1.8.4-2.5 1l.4.3c.6-.6 1.3-.9 2.2-.9v-.4zm-2.4 1l-5.1 5.1.3.3L9 33.7l-.3-.3zm-4.9 5c-.4-.2-.8-.3-1.2-.3v.4c.4 0 .7.1 1 .2l.2-.3zm-1.2-.2c-.7 0-1.4.3-1.9.8l.3.3c.4-.4 1-.7 1.6-.7v-.4zm-1.8.7c-.5.5-.8 1.2-.8 1.9h.4c0-.6.2-1.2.7-1.6l-.3-.3zM0 40.8c0 .7.3 1.4.8 1.9l.3-.3c-.4-.4-.7-1-.7-1.6H0zm.8 1.9c.5.5 1.2.8 1.9.8V43c-.6 0-1.2-.2-1.6-.7l-.3.4zm1.8.7c.7 0 1.4-.3 1.9-.8l-.3-.3c-.4.4-1 .7-1.6.7v.4zm1.9-.7c.5-.5.8-1.2.8-1.9h-.4c0 .6-.2 1.2-.7 1.6l.3.3zm.8-1.9c0-.4-.1-.8-.3-1.2l-.4.2c.2.3.2.6.2 1h.5zm-.3-.9l5.1-5.1-.3-.3-5.1 5.1.3.3zm5.1-5.1c.3-.3.7-.4 1.1-.4V34c-.5 0-1 .2-1.4.6l.3.2zm1-.5h2.3v-.4h-2.3v.4zm2.2-.2v1.7h.4v-1.7h-.4zm0 1.7c0 2.4 1.9 4.3 4.3 4.3v-.4c-2.1 0-3.9-1.7-3.9-3.9h-.4zm4.3 4.3h1.7v-.4h-1.7v.4zm1.5-.2v6.9h.4v-6.9h-.4zm.1 6.7c-1 .4-1.8 1.3-1.8 2.5h.4c0-1 .6-1.8 1.5-2.1l-.1-.4zm-1.8 2.5c0 1.5 1.2 2.6 2.6 2.6v-.4c-1.2 0-2.2-1-2.2-2.2h-.4zm2.7 2.6c1.5 0 2.6-1.2 2.6-2.6h-.4c0 1.2-1 2.2-2.2 2.2v.4zm2.6-2.6c0-1.2-.8-2.1-1.8-2.5l-.1.4c.9.3 1.5 1.1 1.5 2.1h.4zM21 46.8v-6.9h-.4v6.9h.4zm-.2-6.7h1.8v-.4h-1.8v.4zm1.6-.2v3.4h.4v-3.4h-.4zm0 3.4c0 .5.4 1 1 1v-.4c-.3 0-.6-.3-.6-.6h-.4zm1 1c.5 0 1-.4 1-1H24c0 .3-.3.6-.6.6v.4zm1-1v-3.4H24v3.4h.4zm-.2-3.2H26v-.4h-1.8v.4zm1.5-.2v12.5h.4V39.9h-.4zm0 12.5c0 .5.4 1 1 1V53c-.3 0-.6-.3-.6-.6h-.4zm1 1c.5 0 1-.4 1-1h-.4c0 .3-.3.6-.6.6v.4zm1-1V39.9h-.4v12.5h.4zm-.2-12.3h1.8v-.4h-1.8v.4zm1.5-.2v3.4h.4v-3.4H29zm0 3.4c0 .5.4 1 1 1v-.4c-.3 0-.6-.3-.6-.6H29zm1 1c.5 0 1-.4 1-1h-.4c0 .3-.3.6-.6.6v.4zm1-1v-3.4h-.4v3.4h.4zm-.2-3.2h1.8v-.4h-1.8v.4zm1.6-.2v2.3h.4v-2.3h-.4zm0 2.4c0 .9.4 1.8 1 2.5l.3-.3c-.6-.6-.9-1.3-.9-2.2h-.4zm1 2.4l5.1 5.1.3-.3-5.1-5.1-.3.3zm5 4.9c-.5 1-.3 2.2.5 3l.3-.3c-.7-.7-.8-1.7-.4-2.6l-.4-.1zm.5 3c.5.5 1.2.8 1.9.8V53c-.6 0-1.1-.2-1.6-.7l-.3.3zm1.9.8c.7 0 1.3-.3 1.9-.8l-.3-.3c-.4.4-1 .7-1.6.7v.4zm1.9-.8c1-1 1-2.7 0-3.7l-.3.3c.9.9.9 2.3 0 3.2l.3.2zM4.3 20.7c-.4 0-.7-.3-.7-.7h-.4c0 .6.5 1.1 1.1 1.1v-.4zm-.7-.6c0-.4.3-.7.7-.7V19c-.6 0-1.1.5-1.1 1.1h.4zm.7-.7c.4 0 .7.3.7.7h.4c0-.6-.5-1.1-1.1-1.1v.4zm.7.7c0 .4-.3.7-.7.7v.4c.6 0 1.1-.5 1.1-1.1H5zM3.1 41.3c-.1.1-.3.2-.5.2v.4c.3 0 .6-.1.8-.3l-.3-.3zm-.5.2c-.2 0-.4-.1-.5-.2l-.3.3c.2.2.5.3.8.3v-.4zm-.4-.2c-.2-.1-.2-.3-.2-.5h-.4c0 .3.1.6.3.8l.3-.3zm-.2-.5c0-.2.1-.4.2-.5l-.3-.3c-.2.2-.3.5-.3.8H2zm.2-.5c.1-.1.3-.2.5-.2v-.4c-.3 0-.6.1-.8.3l.3.3zm.4-.2c.2 0 .4.1.5.2l.3-.3c-.2-.2-.5-.3-.8-.3v.4zm.5.2c.1.1.2.3.2.5h.4c0-.3-.1-.6-.3-.8l-.3.3zm.2.5c0 .2-.1.4-.2.5l.3.3c.2-.2.3-.5.3-.8h-.4zm17.4 8.3c0 .4-.3.7-.7.7v.4c.6 0 1.1-.5 1.1-1.1h-.4zm-.6.7c-.4 0-.7-.3-.7-.7H19c0 .6.5 1.1 1.1 1.1v-.4zm-.7-.7c0-.4.3-.7.7-.7V48c-.6 0-1.1.5-1.1 1.1h.4zm.7-.7c.4 0 .7.3.7.7h.4c0-.6-.5-1.1-1.1-1.1v.4zm21.2 2.8c-.3.3-.7.3-1 0l-.3.3c.4.4 1.1.4 1.5 0l-.2-.3zm-1 0c-.3-.3-.3-.7 0-1L40 50c-.4.4-.4 1.1 0 1.5l.3-.3zm0-.9c.1-.1.3-.2.5-.2v-.4c-.3 0-.6.1-.8.3l.3.3zm.5-.2c.2 0 .4.1.5.2l.3-.3c-.2-.2-.5-.3-.8-.3v.4zm.5.2c.3.3.3.7 0 1l.3.3c.4-.4.4-1.1 0-1.5l-.3.2zM23.7 31.2v-9.9h-.4v9.9h.4zm-.2-9.7h5.8v-.4h-5.8v.4zm5.6-.2v1.2h.4v-1.2h-.4zm.2 1h-4.4v.4h4.4v-.4zm-4.6.2v3.1h.4v-3.1h-.4zm.2 3.3h3.5v-.4h-3.5v.4zm3.3-.2v1.2h.4v-1.2h-.4zm.2 1h-3.5v.4h3.5v-.4zm-3.7.2V30h.4v-3.2h-.4zm.2 3.4h4.6v-.4h-4.6v.4zm4.4-.2v1.2h.4V30h-.4zm.2 1h-6v.4h6V31z" class="st2"/> 
    </symbol>
    <symbol id="icon_camera" viewBox="0 0 58.6 49.6">
       <path d="M58.1 16L14.6 0l43.5 16zm0 0c.2.1.3.2.4.4.2.4.1.9-.4 1.2l-6.5 3.3-.1.1.1.2c.5 1.1.7 2.4.4 3.7-.6 3.3-3.9 5.6-7.3 4.9h-.2l-.1.2-.4 1.1c-.1.3-.5.6-.8.6-.1 0-.2 0-.3-.1l-9.1-3.3-.2-.1-.1.2-.7 2c-.4 1-1.1 1.8-2 2.2l-.1.1v11.9c0 1.6-1.3 3-3 3s-3-1.3-3-3v-1.3H10l-.1.1c-.7 1.5-2 2.6-3.7 3H6V48.8c0 .5-.4.9-.9.9H.9c-.5 0-.9-.4-.9-.9v-17c0-.5.4-.9.9-.9h4.3c.5 0 .9.4.9.9V34.2h.2c1.6.3 3 1.4 3.7 3l.1.1h14.7v-5.8l-.1-.1c-1.5-1-2.1-3-1.5-4.7l.7-2 .1-.2-.2-.1-10.1-3.7c-.5-.2-.7-.7-.5-1.1l1.1-3 .1-.2-.2-.1-5-1.8c-.4-.2-.7-.7-.5-1.1L13.5.5c.2-.4.7-.7 1.1-.5l43.5 16zM26.8 32.4l-.3-.1v4.9H29v-4.3h-.2c-.4 0-.8-.1-1.2-.2l-.8-.3zM4.1 47.8h.2V32.5H1.7V47.8H4.1zm4.5-6.5v-2.1c0-1.4-.9-2.7-2.3-3.2l-.3-.1V44.6l.3-.1c1.4-.5 2.3-1.8 2.3-3.2zm2-2.4h-.2V41.4H29V38.9H10.6zm16.1 4.3h-.2v1.3c0 .7.6 1.3 1.3 1.3s1.3-.6 1.3-1.3v-1.3H26.7zM32 27.7l.1-.2-.2-.1-.6-.2-5.4-2-.2-.1-.1.2-.7 2c-.4 1.2.2 2.5 1.4 3l2 .7c1.2.4 2.6-.2 3-1.4l.7-1.9zm10.5 1.8l.2.1.1-.2 2.2-6 .1-.2-.2-.1-8.4-3.1h-.1l-.1.1-3 2.8c-.2.2-.6.3-.9.2l-16.1-5.9-.3-.1v.2l-.7 2-.1.2.2.1 27.1 9.9zm7.6-4.3c.4-1.1.4-2.2-.1-3.2l-.1-.2-.2.1-2.7 1.3h-.1v.1l-1.7 4.5-.1.2h.3c2 .3 3.9-.9 4.7-2.8zm-3.8-3.5l8.9-4.5.4-.2-.4-.2L15 2h-.2l-.1.2-4.1 11-.1.2.2.1 21.5 7.8h.1l.1-.1 3-2.8c.2-.2.6-.3.9-.2l9.6 3.5h.4z" class="st0"/> <path d="M21.6 14.6l-1.7-.6.6-1.6 1.6.6-.5 1.6zM25.6 16.1l-1.6-.6.6-1.6 1.6.6-.6 1.6zM29.6 17.5l-1.6-.6.6-1.6 1.6.6-.6 1.6z" class="st0"/> 
    </symbol>
    <symbol id="icon_folder" viewBox="0 0 30 40">
       <path d="M28.4685 8.56494L28.9521 9.08047C29.2672 9.41634 29.3242 9.82917 29.3242 10.3464V27.0775V38.135V38.4446C29.3242 38.756 29.1777 39.0555 28.9555 39.2964C28.7329 39.5378 28.4285 39.7272 28.0979 39.8182M28.4685 8.56494L28.0714 39.7217M28.4685 8.56494L22.1369 1.81488L21.6534 1.29935C21.4163 1.04662 21.0867 0.9 20.7475 0.9H2.5448C2.14534 0.9 1.73215 1.06453 1.41961 1.40681C1.10664 1.74957 0.9 2.26424 0.9 2.95648V27.0775V38.135V38.4446C0.9 38.756 1.04643 39.0555 1.26863 39.2964C1.49123 39.5378 1.79563 39.7272 2.12628 39.8182M28.4685 8.56494L2.1528 39.7217M28.0979 39.8182L28.0714 39.7217M28.0979 39.8182C28.0979 39.8181 28.098 39.8181 28.0981 39.8181L28.0714 39.7217M28.0979 39.8182C28.0883 39.8208 28.0793 39.8238 28.0678 39.8276C28.0642 39.8288 28.0603 39.8301 28.056 39.8315C28.0398 39.8369 28.0198 39.8432 27.9977 39.8477C27.8937 39.8697 27.7871 39.8819 27.6793 39.8819H2.5448C2.4369 39.8819 2.33021 39.8697 2.22615 39.8477M28.0714 39.7217C28.059 39.7252 28.0469 39.7292 28.0348 39.7332C28.016 39.7395 27.9971 39.7458 27.9773 39.7498C27.8794 39.7706 27.7797 39.7819 27.6793 39.7819H2.5448C2.44445 39.7819 2.34472 39.7706 2.24688 39.7498M2.22615 39.8477C2.22637 39.8477 2.22658 39.8477 2.22679 39.8478L2.24688 39.7498M2.22615 39.8477L2.24688 39.7498M2.22615 39.8477C2.2042 39.8431 2.18425 39.8368 2.16817 39.8315C2.1639 39.8301 2.16 39.8288 2.15634 39.8276C2.14483 39.8238 2.13585 39.8208 2.12628 39.8182M2.24688 39.7498C2.22707 39.7458 2.20818 39.7395 2.18938 39.7332C2.17723 39.7292 2.16511 39.7252 2.1528 39.7217M2.1528 39.7217L2.12628 39.8182M2.1528 39.7217L2.12609 39.8181C2.12615 39.8181 2.12621 39.8181 2.12628 39.8182M27.7245 10.4612C27.7748 10.4612 27.8232 10.456 27.8697 10.4479V26.9775H2.35441V2.95648C2.35441 2.88633 2.35966 2.74281 2.39465 2.61985C2.4122 2.55818 2.43503 2.50983 2.46171 2.47857C2.48586 2.45027 2.51135 2.43731 2.5448 2.43731H20.357C20.3486 2.48915 20.3433 2.54306 20.3433 2.59875V10.3612V10.4612H20.4433H27.7245ZM21.7977 3.63653L26.7573 8.92385H21.7977V3.63653ZM2.5448 38.3446C2.52404 38.3446 2.50441 38.3372 2.46189 38.3206C2.39962 38.2873 2.35441 38.2186 2.35441 38.135V28.5148H27.8697V38.135C27.8697 38.2182 27.8249 38.2866 27.762 38.3207C27.7197 38.3372 27.7001 38.3446 27.6793 38.3446H2.5448Z" fill="white" stroke="white" stroke-width="0.2"/> <path d="M9.86058 31.3342L9.81226 31.4217C9.96041 31.5035 10.072 31.603 10.151 31.7192C10.2325 31.84 10.2852 31.9648 10.3113 32.0939C10.3387 32.2326 10.352 32.3522 10.352 32.4535C10.352 32.7213 10.3214 32.9397 10.2632 33.1121C10.2031 33.2885 10.1276 33.418 10.0386 33.5076C9.94471 33.6022 9.84387 33.6685 9.7362 33.7083C9.62359 33.7499 9.5105 33.7709 9.3977 33.7709H8.55439V31.3018H9.22585C9.47864 31.3018 9.67162 31.3444 9.81241 31.4218L9.86058 31.3342ZM9.86058 31.3342C9.70002 31.2459 9.48865 31.2018 9.22585 31.2018H8.55439L10.4094 32.0743C10.3805 31.9312 10.3222 31.7942 10.2338 31.6631C10.1447 31.5321 10.0205 31.4224 9.86058 31.3342ZM10.814 30.8431L10.8139 30.843C10.5955 30.6521 10.3485 30.5078 10.0734 30.4126C9.80035 30.3174 9.52334 30.27 9.24341 30.27H7.42578H7.32578V30.37V37.1071V37.2071H7.42578H8.45502H8.55502V37.1071V34.7753H9.21832C9.5599 34.7753 9.87565 34.7222 10.1625 34.6137C10.4483 34.5056 10.6948 34.3522 10.8999 34.1534C11.1056 33.9538 11.2643 33.708 11.378 33.4188L11.3781 33.4186C11.4917 33.128 11.548 32.8065 11.548 32.4541C11.548 32.1175 11.4806 31.8112 11.3444 31.5365C11.2102 31.2656 11.0329 31.0351 10.814 30.8431Z" fill="white" stroke="white" stroke-width="0.2"/> <path d="M17.0396 31.2904L17.0395 31.2903C16.7633 30.9806 16.417 30.7325 16.0019 30.5481C15.5836 30.3622 15.1021 30.27 14.5595 30.27H12.6559H12.5559V30.37V37.1071V37.2071H12.6559H15.0481C15.1345 37.2071 15.2628 37.1957 15.4297 37.1742L15.4297 37.1742C15.6046 37.1516 15.7955 37.1011 16.0013 37.022C16.2109 36.9422 16.4253 36.8234 16.6452 36.6671C16.8719 36.506 17.0728 36.2874 17.2501 36.0134C17.4287 35.7375 17.5734 35.3988 17.687 34.9988C17.8019 34.5943 17.8583 34.1105 17.8583 33.55C17.8583 33.1364 17.7906 32.7335 17.6559 32.3426L17.6558 32.3423C17.5192 31.9504 17.3144 31.5993 17.0396 31.2904ZM16.1309 35.5348L16.1308 35.5349C15.8451 35.9751 15.3782 36.2021 14.7057 36.2021H13.7852V31.3011H14.2854C14.769 31.3011 15.1539 31.369 15.4453 31.4984C15.742 31.6302 15.973 31.8012 16.1413 32.0095C16.3119 32.2205 16.4262 32.4547 16.4861 32.7139C16.5471 32.9807 16.5776 33.2507 16.5776 33.5233C16.5776 34.4164 16.4244 35.0833 16.1309 35.5348Z" fill="white" stroke="white" stroke-width="0.2"/> <path d="M19.1504 37.1071V37.2071H19.2504H20.2965H20.3965V37.1071V34.1722H22.9377H23.0377V34.0722V33.3227V33.2227H22.9377H20.3965V31.3018H23.203H23.303V31.2018V30.37V30.27H23.203H19.2504H19.1504V30.37V37.1071Z" fill="white" stroke="white" stroke-width="0.2"/> <path d="M15.9619 6.98779L15.966 6.99343C16.1531 7.24729 16.5603 7.80003 15.7279 11.536C16.5734 13.3975 17.7714 15.2938 18.9191 16.5923C19.7414 16.4332 20.4489 16.3529 21.0253 16.3529C22.0075 16.3529 22.6027 16.5977 22.8442 17.0985M15.9619 6.98779L14.6134 11.6557C14.0784 13.9244 13.1809 16.6398 12.2375 18.8437C9.86045 20.0045 8.59789 21.1445 8.48373 22.2324C8.44234 22.6282 8.53015 23.2093 9.18307 23.7315C9.36182 23.8739 9.57131 23.9495 9.78957 23.9495C10.3384 23.9495 10.8928 23.5015 11.5345 22.5407M15.9619 6.98779C15.9421 6.96093 15.9215 6.93239 15.9001 6.90277C15.7087 6.63754 15.4553 6.28638 15.171 6.28638C15.0386 6.28638 14.6774 6.35057 14.5337 6.40139L15.9619 6.98779ZM22.8442 17.0985C23.0455 17.5151 22.9627 18.0005 22.5996 18.5428M22.8442 17.0985L22.9342 17.055C22.9342 17.055 22.9342 17.055 22.9343 17.0551M22.8442 17.0985L22.9343 17.0551M22.5996 18.5428C22.2509 19.0637 21.7692 19.3391 21.2072 19.3391C20.4445 19.3391 19.557 18.8256 18.566 17.8113M22.5996 18.5428L22.6827 18.5984M22.5996 18.5428L22.6827 18.5984C22.6827 18.5984 22.6827 18.5984 22.6827 18.5984M18.566 17.8113C16.7867 18.2078 14.7087 18.9152 13.0291 19.6982M18.566 17.8113L18.4945 17.8812C18.5076 17.8945 18.5206 17.9078 18.5336 17.921M18.566 17.8113L18.5878 17.9089C18.5698 17.9129 18.5517 17.9169 18.5336 17.921M13.0291 19.6982C12.5047 20.8844 12.0023 21.8399 11.5345 22.5407M13.0291 19.6982L13.0713 19.7888C13.0826 19.7836 13.094 19.7783 13.1053 19.773M13.0291 19.6982L13.1205 19.7386C13.1155 19.7501 13.1104 19.7616 13.1053 19.773M11.5345 22.5407L11.6176 22.5962C11.2941 23.0807 10.9886 23.4421 10.69 23.6832C10.3906 23.925 10.0933 24.0495 9.78957 24.0495C9.54742 24.0495 9.31621 23.9655 9.12075 23.8097L9.12061 23.8096C8.43716 23.263 8.3399 22.6464 8.38428 22.222L8.38428 22.222C8.44503 21.643 8.80933 21.0651 9.44502 20.4911C10.0758 19.9217 10.9836 19.3472 12.1602 18.7702C13.0915 16.588 13.9767 13.9095 14.5085 11.6648M11.5345 22.5407L11.6176 22.5962C12.0854 21.8957 12.5852 20.9462 13.1053 19.773M14.5085 11.6648L18.9565 16.4833C19.7586 16.3306 20.4537 16.2529 21.0253 16.2529C22.0153 16.2529 22.666 16.4988 22.9343 17.0551M14.5085 11.6648C14.1987 10.9429 13.8937 10.1145 13.7193 9.32619C13.5433 8.5306 13.4963 7.75823 13.7297 7.17656L13.7297 7.17652C13.8885 6.78134 14.0976 6.45026 14.5003 6.30716L14.5004 6.30711C14.5803 6.27885 14.7132 6.24896 14.8389 6.2264C14.964 6.20394 15.0951 6.18638 15.171 6.18638C15.3736 6.18638 15.5476 6.32336 15.6839 6.46825C15.7957 6.58694 15.898 6.72876 15.9831 6.84684C16.0039 6.87571 16.0237 6.90316 16.0424 6.9285L16.0424 6.92852C16.0438 6.93046 16.0453 6.93242 16.0468 6.9344C16.0939 6.99841 16.1597 7.08766 16.2153 7.24114C16.272 7.3976 16.3168 7.61623 16.3287 7.94107C16.3522 8.5853 16.2467 9.66058 15.8328 11.525L14.5085 11.6648ZM13.1053 19.773C14.7554 19.0073 16.7855 18.3154 18.5336 17.921M18.5336 17.921C19.5136 18.9139 20.4127 19.4391 21.2072 19.4391C21.8068 19.4391 22.3179 19.1433 22.6827 18.5984M22.6827 18.5984C23.0564 18.0403 23.157 17.5159 22.9343 17.0551M10.0788 21.6728C10.3313 21.418 10.6982 21.1233 11.2022 20.7999C10.7776 21.5975 10.4469 22.0685 10.2091 22.3454C10.0153 22.5711 9.88548 22.6652 9.81947 22.703C9.71539 22.6096 9.6692 22.5358 9.64845 22.4847C9.62617 22.4298 9.62991 22.3936 9.6324 22.3695L9.6325 22.3685C9.63251 22.3685 9.63251 22.3685 9.63251 22.3684C9.6483 22.2179 9.77364 21.9808 10.0788 21.6728ZM14.8925 7.74897C14.9125 7.71116 14.9317 7.67853 14.9487 7.65168C14.9539 7.6598 14.9593 7.66854 14.9648 7.67789C15.0133 7.76035 15.0719 7.88759 15.1126 8.05846C15.1873 8.37281 15.2022 8.83912 14.9755 9.45129C14.6561 9.02948 14.6394 8.58698 14.7159 8.23268C14.7581 8.0368 14.8288 7.86882 14.8925 7.74897ZM13.828 18.0289C14.4026 16.5463 14.9368 14.9362 15.3568 13.4221C16.0117 14.6457 16.7776 15.8267 17.5492 16.8003C16.3237 17.1149 15.0332 17.5413 13.828 18.0289ZM21.6585 17.8338C21.581 17.9494 21.4548 18.0136 21.3199 18.0481C21.1855 18.0826 21.0546 18.0844 20.9826 18.0844C20.844 18.0844 20.7501 18.0432 20.6248 17.9468C20.5604 17.8971 20.49 17.8346 20.4014 17.756L20.399 17.7539C20.3545 17.7144 20.3061 17.6715 20.2526 17.6251C20.5834 17.5907 20.8921 17.581 21.1482 17.581C21.4227 17.581 21.5782 17.6026 21.6716 17.627C21.7099 17.637 21.7378 17.6474 21.7605 17.6578C21.7404 17.7007 21.7086 17.7588 21.6585 17.8338Z" fill="white" stroke="white" stroke-width="0.2"/> 
    </symbol>
    <symbol id="icon_man" viewBox="0 0 52.3 52.3">
       <path d="M50.8 29.9l.1-.1V2.9c0-.8-.7-1.5-1.5-1.5H6.6c-.4 0-.7-.3-.7-.7-.1-.4.3-.7.7-.7h42.8c1.6 0 2.9 1.3 2.9 2.9v36.5c0 1-.6 2-1.5 2.5l.1.1h-.1c-.1.1-.2.1-.4.1-.3 0-.5-.1-.6-.4-.2-.3-.1-.8.3-1 .5-.3.7-.8.7-1.3v-8.1H46c-.4 0-.7-.3-.7-.7 0-.4.3-.7.7-.7h4.8z" class="st0"/> <path d="M46.1 39c-1.6 0-2.9-1.3-2.9-2.9 0-1.6 1.3-2.9 2.9-2.9 1.6 0 2.9 1.3 2.9 2.9 0 1.6-1.3 2.9-2.9 2.9zm1.4-2.9c0-.8-.7-1.5-1.5-1.5s-1.5.7-1.5 1.5.7 1.5 1.5 1.5 1.5-.7 1.5-1.5zM1.6 31.3l-.1 8.1c0 .8.7 1.5 1.5 1.5h14.4c.4 0 .7.3.7.7 0 .4-.3.7-.7.7H2.9C1.3 42.4 0 41 0 39.4V2.9C0 1.3 1.3 0 2.9 0h4.4c.4 0 .7.3.7.7s-.2.8-.6.8H2.9c-.8 0-1.5.7-1.5 1.5V29.9h20.3c.4 0 .7.3.7.7s-.3.7-.7.7H1.6z" class="st0"/> <path d="M39 38.8l7.4 2.3c2.2.7 3.7 2.6 3.7 4.9v4.4c0 1-.8 1.8-1.8 1.8h-5.2c.2-.2.4-.4.4-.7 0-.3-.1-.6-.4-.7h5.2c.2 0 .4-.2.4-.4V46c0-1.6-1.1-3.1-2.6-3.5v.1-.1l-7.8-2.3h-8.6l-7.8 2.3v.1-.1c-1.6.5-2.6 1.9-2.6 3.5v4.4c0 .2.2.4.4.4H25.1v-2.6c0-.4.3-.7.7-.7.4 0 .7.3.7.7v2.6h14.9v.7c0 .3.1.6.4.7H19.5c-1 0-1.8-.8-1.8-1.8V46c0-2.3 1.5-4.3 3.7-4.9l7.3-2.2h.1V36.1h-.1c-.6-.3-1.1-.6-1.6-1.1-1.3-1.1-2.2-2.7-2.5-4.5l-.9-6v-.1h-.1c-.9-.3-1.5-1.2-1.5-2.1 0-.6.2-1.2.7-1.6l1.6-1.6 1.1-3.4c.6-1.9 2.4-3.3 4.4-3.5h.1v-.1c.3-.6.9-1.1 1.7-1.1h4.4c.7 0 1.4.4 1.7 1.1v.1h.1c2 .2 3.7 1.6 4.4 3.5l1.1 3.4 1.6 1.6c.4.4.7 1 .7 1.6 0 1-.6 1.8-1.5 2.1h-.1v.1l-.9 6c-.3 1.7-1.1 3.3-2.5 4.5-.5.4-1 .8-1.6 1.1H39v2.7zm3.5 11.9h-1v-2.4c0-.4.3-.7.7-.7.4 0 .7.3.7.7v2.5c-.1-.1-.2-.1-.4-.1zm-1 .2h1c.4 0 .7.3.7.7s-.3.7-.7.7h-.3c-.4 0-.7-.3-.7-.7v-.7zM23.8 21.8c-.2.2-.2.4-.2.6 0 .5.4.8.8.8h19c.5 0 .8-.4.8-.8 0-.2-.1-.4-.2-.6L42.2 20c-.1-.1-.1-.2-.2-.3l-1.2-3.6c-.4-1.3-1.5-2.2-2.8-2.5h-.1v3.6c0 .4-.3.7-.7.7-.4 0-.7-.3-.7-.7v-4.4c0-.2-.2-.4-.4-.4h-4.4c-.2 0-.4.2-.4.4v4.4c0 .4-.3.7-.7.7s-.7-.3-.7-.7v-3.6h-.1c-1.3.3-2.4 1.2-2.8 2.5l-1.2 3.6c0 .1-.1.2-.2.3l-1.8 1.8zm13.8 15v-.1h-.1c-.5.1-1 .2-1.5.2-.4 0-.7-.3-.7-.7 0-.4.3-.7.7-.7 2.9 0 5.4-2.1 5.8-5l.9-5.6v-.1H25.2v.1l.9 5.6c.4 2.9 2.9 5 5.8 5h.9c.4 0 .7.3.7.7 0 .4-.3.7-.7.7h-.9c-.5 0-1-.1-1.5-.2h-.1v2H37.7V36.8zM3.3 36.1c0-1.6 1.3-2.9 2.9-2.9H14c1.6 0 2.9 1.3 2.9 2.9 0 1.6-1.3 2.9-2.9 2.9H6.3c-1.7 0-3-1.3-3-2.9zM14 37.6c.8 0 1.5-.7 1.5-1.5s-.7-1.5-1.5-1.5H6.3c-.8 0-1.5.7-1.5 1.5s.7 1.5 1.5 1.5H14z" class="st0"/> <path d="M11.1 10.4v-.1H8c-.7 0-1.3-.6-1.3-1.3V5.7c0-.7.6-1.3 1.3-1.3h7.7c.7 0 1.3.6 1.3 1.3v.9h28c.4 0 .7.3.7.7v8.8c0 .4-.3.7-.7.7-.4 0-.7-.3-.7-.7v-8H16.9V9c0 .7-.6 1.3-1.3 1.3h-3.1v2.2h.1l3.7 1.8c.4.2.7.7.7 1.1v.4c0 .5-.3.9-.7 1.1l-3.7 1.8h-.1V21h3.1c.7 0 1.3.6 1.3 1.3v.9h2.6c.4 0 .7.3.7.7 0 .4-.3.7-.7.7h-2.6v.9c0 .7-.6 1.3-1.3 1.3H7.9c-.7 0-1.3-.6-1.3-1.3v-3.3c0-.7.6-1.3 1.3-1.3H11v-2.2h-.1L7.3 17c-.4-.2-.7-.7-.7-1.1v-.4c0-.5.3-.9.7-1.1l3.7-1.8h.1v-2.2zm4.4 12.2v-.1H8.1v3H15.5v-2.9zm0-7l-3.6-1.9-3.6 1.8h-.1V15.8h.1l3.6 1.8 3.6-1.8h.1v-.2h-.1zm-.1-6.8h.1V5.9H8.1v3H15.4zM21.7 39c-1.6 0-2.9-1.3-2.9-2.9 0-1.6 1.3-2.9 2.9-2.9 1.6 0 2.9 1.3 2.9 2.9.1 1.6-1.2 2.9-2.9 2.9zm0-1.4c.8 0 1.5-.7 1.5-1.5s-.7-1.5-1.5-1.5-1.5.7-1.5 1.5.7 1.5 1.5 1.5z" class="st0"/> 
    </symbol>
    <symbol id="icon_server" viewBox="0 0 52.3 51.1">
       <path d="M3.4 37.4h1.5v1.5H3.4v-1.5zM6.8 37.4h1.5v1.5H6.8v-1.5zM23.7 39.1h1.5v1.5h-1.5v-1.5zM20.3 39.1h1.5v1.5h-1.5v-1.5zM3.4 24h1.5v1.5H3.4V24zM6.8 24h1.5v1.5H6.8V24zM23.7 25.7h1.5v1.5h-1.5v-1.5zM20.3 25.7h1.5v1.5h-1.5v-1.5zM3.4 10.5h1.5V12H3.4v-1.5zM6.8 10.5h1.5V12H6.8v-1.5zM23.7 12.2h1.5v1.5h-1.5v-1.5zM20.3 12.2h1.5v1.5h-1.5v-1.5z" class="st0"/> <path d="M37.8 13.1l3.4-1.7h8.7c1.3 0 2.4 1.1 2.4 2.4v23.5c0 1.3-1.1 2.4-2.4 2.4H28.6v1.8c0 1.3-1.1 2.4-2.4 2.4H2.4c-1.3 0-2.4-1.1-2.4-2.4v-5C0 35.1 1.1 34 2.4 34h.9v-3.6h-.9C1.1 30.4 0 29.3 0 28v-5c0-1.3 1.1-2.4 2.4-2.4h.9V17h-.9c-1.3.1-2.4-1-2.4-2.4v-5c0-1.3 1.1-2.4 2.4-2.4h23.7c1.3 0 2.4 1.1 2.4 2.4v3.5H37.8zM5 17.1l-.1.1v3.5H23.7v-3.6H5zm0 13.4l-.1.1V34H23.7v-3.6H5zm23.6 7.6v.1h21.3c.5 0 .9-.4.9-.9V19.6H30.5v-1.5h20.3v-4.3c0-.5-.4-.9-.9-.9h-8.3l-3.4 1.7h-9.6v.1c0 1.3-1.1 2.4-2.4 2.4h-.9v3.6h.9c1.3 0 2.4 1.1 2.4 2.4v5c0 1.3-1.1 2.4-2.4 2.4h-.9V34h.9c1.3 0 2.4 1.1 2.4 2.4v1.7zM1.5 9.6v5c0 .5.4.9.9.9h23.7c.5 0 .9-.4.9-.9v-5c0-.5-.4-.9-.9-.9H2.4c-.5 0-.9.4-.9.9zm0 13.4v5c0 .5.4.9.9.9h23.7c.5 0 .9-.4.9-.9v-5c0-.5-.4-.9-.9-.9H2.4c-.5 0-.9.4-.9.9zm24.7 19.4c.5 0 .9-.4.9-.9v-5c0-.5-.4-.9-.9-.9H2.4c-.5 0-.9.4-.9.9v5c0 .5.4.9.9.9h23.8z" class="st0"/> <path d="M40.7 14.7H49v1.5h-8.3v-1.5zM32.1 24.6H32V34.9h15.5V24.6H32.1zM49 23.1v13.2H30.5V23.1H49z" class="st0"/> <path d="M33.9 26.5h11.7V28H33.9v-1.5zM33.9 29.9h11.7v1.5H33.9v-1.5zM37.2 7h-.1v2.1l-9.2-4.6L37.1 0v2.1h11v1.5H35.6V2.4l-.1.1-4 2-.2.1.2.1 4 2 .1.1V5.5h15.9V7H37.2zM42.3 44.1l.1-2.1 9.2 4.6-9.2 4.6V49h-8.5v-1.5h10v1.3l.1-.1 4-2 .2-.1-.2-.1-4-2-.1-.1v1.3H30.5v-1.5h11.8z" class="st0"/> 
    </symbol></svg>