<svg id="technology-icon-1" viewBox="0 0 572.4 511.5">
	<path d="M400.4 510.3c-10.2-3.4-19.1-10.8-23.5-19.6l-2.2-4.4-68.8.6c-77.8.6-74.2 1-76.9-6.8-1.2-3.6-1.2-4.4.3-7.7 3.3-6.9 2.3-6.8 59.8-6.8 28.3 0 58.9-.3 68-.7l16.5-.7 2.3-5.6c3.2-7.7 11.3-16.1 19.2-19.7 5.5-2.5 7.4-2.9 15.7-2.9 8.7 0 10.1.3 16.2 3.3 23.2 11.4 28.6 40.7 11.1 60.2-6.6 7.3-14.9 11.1-25.5 11.6-5.2.4-9.7 0-12.2-.8zm19.6-23.1c4.3-2.8 6.9-7.9 6.9-13.5 0-7.9-4.7-14-12.5-16.1-11.1-3.1-22.9 9.1-19.6 20.2 3.4 11.2 15.5 15.7 25.2 9.4zm-274.2 17.2c-14.9-5.2-25.9-20.4-25.9-35.8 0-5.7 2.8-15.1 6.1-20.4 2.4-3.9 2.8-5.4 2.1-7-.5-1.1-16.1-27.9-34.6-59.5-29.6-50.5-33.6-58-33.6-61.6 0-5 3.4-9.1 8.6-10 7.2-1.3 7.1-1.5 44.2 62.1l34.5 59h10.1c9.2 0 10.7.3 16.6 3.1 8.3 3.9 14.5 10.1 18.4 18.4 2.8 5.9 3.1 7.4 3.1 16 0 8.2-.4 10.3-2.7 15.2-8.5 18.1-28.7 26.9-46.9 20.5zm20.3-21.4c6.2-3.1 10-11.7 8-18.3-4.2-14.1-21.5-17.2-29.6-5.3-4.6 6.8-2.8 17.8 3.7 22.4 5.3 3.8 11.8 4.2 17.9 1.2zm282.2-67.3c-1.2-.5-3.1-2.1-4.2-3.6-4.6-5.8-4.6-5.7 29.8-66.7 17.6-31.2 32.7-58.1 33.5-59.7 1.6-3 1.5-3.1-2-7.2-8-9.4-10.5-25.8-5.7-38 3.1-8 10.6-15.9 18.9-20 6.1-3 7.4-3.3 16.2-3.3 8.7 0 10.1.3 16.1 3.2 7.9 3.9 15 11.1 18.7 19 2.3 4.9 2.7 7 2.7 15.2 0 8.7-.3 10.1-3.2 16.1-6.5 13.1-18.3 20.9-33 21.7l-8.2.4-33.8 60c-34.7 61.6-36.2 63.8-41.8 63.7-1 0-2.8-.4-4-.8zM543 269.1c9.4-4.8 11.2-18.4 3.5-26-7.4-7.4-19.2-6.3-25.1 2.3-3.8 5.6-3.6 13.5.5 19.1 1.7 2.3 3.1 4.2 3.2 4.2.1 0 2 .7 4.2 1.5 4.4 1.5 9.3 1.1 13.7-1.1zM273 387.8c-4.4-4.4-4.3-10.1.2-14.7 3.1-3.1 3.7-3.3 13.2-3.9 38-2.6 74.2-22 94.5-50.8 13.1-18.5 21.6-43.1 23.6-67.8.8-9.8 2.2-13.4 6.4-15.5 5.2-2.7 10.6-1.3 13.7 3.4 4.6 7.1-1.7 43.2-11.5 66-16.1 37.4-46.4 64.9-85.6 78-16 5.3-25.7 7.2-39.7 7.9l-11.7.5-3.1-3.1zm6.3-46.1c-5.7-2.5-8.2-11-4.8-16 2.1-3 7.2-5.1 12.6-5.1 6.4 0 20-3.6 28.1-7.3 24.2-11.3 38.2-32.6 41.2-63 .5-5.5 1.2-7.4 3.5-10 2.4-2.7 3.5-3.2 7.4-3.2 3.6 0 5.1.6 7.2 2.6 3.6 3.6 4.1 9.3 2 21.8-5.8 34.6-25.1 59.8-56 72.8-13.7 5.9-35.7 9.8-41.2 7.4zm-3-47c-10.2-2.4-20.6-11.1-25.2-20.8-3.8-8.1-4.3-21.2-1.2-29.5 8.8-23.5 37.7-32.1 58-17.3 9.8 7.2 15 17.7 15 30.5 0 17.6-10.4 31.6-26.9 36.4-5.7 1.7-14.3 2-19.7.7zm13.8-21.1c4.6-1.3 10.5-7.7 11.4-12.4 2.3-12.1-8.6-22.5-20.1-19.4-12.7 3.4-16.5 19.2-6.8 28.3 4.4 4.1 9.4 5.2 15.5 3.5zM27.2 288.3c-10.4-3.4-19.4-11.4-24.1-21.4-2.3-4.9-2.7-7-2.7-15.2s.4-10.3 2.7-15.3c6.3-13.5 18.3-21.6 33.5-22.7l8.2-.6 33.8-60c36.6-64.9 36.3-64.5 43.6-63.1 5.1 1 8.6 5 8.6 10 0 3.6-4.5 12.1-33.5 63.5-18.4 32.7-33.5 59.6-33.5 59.8s1.6 2.2 3.5 4.5c7 8.2 9.9 21.6 7.1 32.6-3 11.8-10.6 21-21.3 25.9-6.7 3.2-19.4 4.1-25.9 2zm19.4-22.8c9.8-5.9 9.9-21.8.1-27.8-7.1-4.3-16.2-3-21.3 3.1-12.1 14.4 5.1 34.4 21.2 24.7zm100.8 4.8c-2.7-1.2-4.5-3.5-5.8-7.7-.7-2.4 1.1-19.3 3.3-30.3 4.4-21.9 14.2-44.5 26.5-60.8 24.4-32.5 66.5-54.6 107.7-56.5l12.7-.6 3.1 3.1c4.5 4.5 4.3 10.1-.3 14.8-3.1 3.1-3.9 3.4-9.2 3.4-3.2 0-9.9.7-14.9 1.5-42.1 6.8-75.7 30.6-93.3 66.1-7.3 14.6-12.4 33.7-13.8 51.4-.8 9.8-2.2 13.4-6.4 15.5-3.6 1.7-5.6 1.8-9.6.1zm48.8-3.6c-1.8-1.1-3.7-2.9-4.2-4-3.1-5.8 1.1-29.6 8-45.7 5.6-13.1 19.3-29.1 32.3-37.7 14.1-9.4 33.5-15.7 49-16 8.8-.2 8.8-.2 11.8 3.1 2.1 2.4 2.9 4.3 2.9 7 0 7.1-5.4 11.2-14.8 11.2-7.1 0-19.6 3.4-28.7 7.9-24 11.9-36.9 31.9-40 62.4-.5 5.4-1.3 7.5-3.4 9.8-3.5 4-8.6 4.7-12.9 2zm299.2-71.9c-2.2-1.4-11.8-17-37.4-60.8l-34.4-58.9H413c-9.5 0-11.2-.3-16.7-2.8-7.7-3.6-15.4-11.3-19.1-19.2-2.4-5.2-2.8-7.2-2.8-15.5s.4-10.3 2.8-15.5c3.7-7.9 11.4-15.6 19.1-19.2C401.7.4 403.6.1 411.9.1c8.1 0 10.3.4 15.1 2.6 13.4 6.2 22.9 20.7 22.9 34.8 0 5.7-2.8 15.1-6.1 20.1l-3 4.6 35 59.8c38.5 65.8 37.8 64.3 32.3 70.5-3.5 4.1-8.5 5-12.7 2.3zM421 51.2c4.3-2.8 6.9-7.9 6.9-13.5 0-7.9-4.7-14-12.5-16.1-11.1-3.1-22.9 9.1-19.6 20.2 3.4 11.2 15.5 15.7 25.2 9.4zm-267.8 23c-22.3-7.3-33.1-32-23.2-53 3.4-7.3 10.2-14.1 17.7-17.8 6.1-3 7.4-3.3 16.2-3.3 8.3 0 10.3.3 15.5 2.8 7.3 3.4 14.8 10.5 18.2 17.1l2.5 4.9 68.8-.6c77.8-.6 74.2-1 76.9 6.8 1.2 3.6 1.2 4.4-.3 7.7-3.3 6.9-2.3 6.8-59.8 6.8-28.3 0-58.9.3-67.9.7l-16.5.7-2.7 6.3c-5.7 13.2-18.3 21.6-33 22.1-5.1.1-9.8-.3-12.4-1.2zM172 52.1c3.6-1.9 6.6-5.8 8-10.6 3.3-10.9-8.6-23-19.6-20-7.8 2.2-12.5 8.2-12.5 16.1 0 12.8 12.7 20.4 24.1 14.5z"></path>
</svg>
