<svg id="technology-icon-4" viewBox="0 0 53.4 53.4">
	<path
		d="M52.4 25.9H39.9v-1.8h3.4c.4 0 .8-.3.8-.8 0-.4-.3-.8-.8-.8h-3.4v-1.8h2.3c.9 0 1.7-.3 2.3-1l5.1-5.1c.3.2.7.3 1.1.3.7 0 1.3-.3 1.7-.7.5-.5.7-1.1.7-1.7 0-.7-.3-1.3-.7-1.7-.5-.5-1.1-.7-1.7-.7-.7 0-1.3.3-1.7.7-.5.5-.7 1.1-.7 1.7 0 .4.1.8.3 1.1l-5.1 5.1c-.3.3-.8.5-1.2.5H40v-1.7c0-2.3-1.8-4.1-4.1-4.1h-1.7V6.6c1-.3 1.7-1.2 1.7-2.3 0-1.3-1.1-2.4-2.4-2.4-1.3 0-2.4 1.1-2.4 2.4 0 1.1.7 2 1.7 2.3v6.9H31v-3.4c0-.4-.3-.8-.8-.8-.4 0-.8.3-.8.8v3.4h-1.8V1c0-.4-.3-.8-.8-.8-.4 0-.8.3-.8.8v12.5h-1.8v-3.4c0-.4-.3-.8-.8-.8s-.8.3-.8.8v3.4h-1.8v-2.3c0-.9-.3-1.7-1-2.3l-5.1-5.1c.5-.9.3-2-.5-2.8-.9-.9-2.5-.9-3.4 0-.9.9-.9 2.5 0 3.4.5.5 1.1.7 1.7.7.4 0 .7-.1 1.1-.3l5.1 5.1c.3.3.5.8.5 1.2v2.3h-1.7c-.3 0-.7 0-1 .1-.4.1-.7.5-.6.9.1.4.5.7.9.6.2-.1.4-.1.6-.1h18.3c1.4 0 2.5 1.1 2.5 2.5v18.3c0 .2 0 .4-.1.6-.1.4.1.8.6.9h.2c.3 0 .7-.2.8-.6.1-.3.1-.7.1-1v-1.7h6.9c.3 1 1.2 1.7 2.3 1.7 1.3 0 2.4-1.1 2.4-2.4 0-1.3-1.1-2.4-2.4-2.4-1.1 0-2 .7-2.3 1.7h-6.9v-1.8h3.4c.4 0 .8-.3.8-.8 0-.4-.3-.8-.8-.8h-3.4v-1.8h12.5c.4 0 .8-.3.8-.8.1-.2-.2-.6-.7-.6zM50.1 12c.2-.2.4-.3.6-.3.2 0 .5.1.6.3.2.2.3.4.3.6 0 .2-.1.5-.3.6-.2.2-.4.3-.6.3-.2 0-.5-.1-.6-.3-.2-.2-.3-.4-.3-.6.1-.2.2-.5.3-.6zM13.2 3.3c-.3.3-.9.3-1.2 0-.3-.3-.3-.9 0-1.2.2-.2.4-.3.6-.3.2 0 .5.1.6.3.4.3.4.8 0 1.2zm20.1 1.9c-.5 0-.9-.4-.9-.9s.4-.9.9-.9.9.4.9.9-.4.9-.9.9zm15.8 27.3c.5 0 .9.4.9.9s-.4.9-.9.9-.9-.4-.9-.9.4-.9.9-.9zM42.5 49c-.8-.8-1.9-.9-2.8-.5l-5.1-5.1c-.3-.3-.5-.8-.5-1.2v-2.3h1.7c.3 0 .7 0 1-.1.4-.1.7-.5.6-.9-.1-.4-.5-.7-.9-.6-.2.1-.4.1-.6.1H17.6c-1.4 0-2.5-1.1-2.5-2.5V17.6c0-.2 0-.4.1-.6.1-.4-.1-.8-.6-.9-.4-.1-.8.1-.9.6-.1.3-.1.7-.1 1v1.7h-7c-.3-1-1.2-1.7-2.3-1.7-1.3 0-2.4 1.1-2.4 2.4 0 1.3 1.1 2.4 2.4 2.4 1.1 0 2-.7 2.3-1.7h6.9v1.8h-3.4c-.4 0-.8.3-.8.8 0 .4.3.8.8.8h3.4V26H1c-.4 0-.8.3-.8.8s.3.8.8.8h12.5v1.8h-3.4c-.4 0-.8.3-.8.8 0 .4.3.8.8.8h3.4v1.8h-2.3c-.9 0-1.7.3-2.3 1l-5.1 5.1c-.3-.2-.7-.3-1.1-.3-.7 0-1.3.3-1.7.7-.5.5-.7 1.1-.7 1.7s.3 1.3.7 1.7c.4.3 1 .5 1.6.5.7 0 1.3-.3 1.7-.7.5-.5.7-1.1.7-1.7 0-.4-.1-.8-.3-1.1l5.1-5.1c.3-.3.8-.5 1.2-.5h2.3v1.7c0 2.3 1.8 4.1 4.1 4.1h1.7v6.9c-1 .3-1.7 1.2-1.7 2.3 0 1.3 1.1 2.4 2.4 2.4 1.3 0 2.4-1.1 2.4-2.4 0-1.1-.7-2-1.7-2.3v-6.9h1.8v3.4c0 .4.3.8.8.8.4 0 .8-.3.8-.8v-3.4h1.8v12.5c0 .4.3.8.8.8.4 0 .8-.3.8-.8V39.9h1.8v3.4c0 .4.3.8.8.8s.8-.3.8-.8v-3.4h1.8v2.3c0 .9.3 1.7 1 2.3l5.1 5.1c-.5.9-.3 2 .5 2.8.5.5 1.1.7 1.7.7.6 0 1.2-.2 1.7-.7 1-.9 1-2.4 0-3.4zM4.3 20.9c-.5 0-.9-.4-.9-.9s.4-.9.9-.9.9.4.9.9-.4.9-.9.9zm-1 20.5c-.2.2-.4.3-.6.3s-.5-.1-.7-.3c-.2-.2-.3-.4-.3-.6 0-.2.1-.5.3-.6.2-.2.4-.3.6-.3s.5.1.6.3c.2.2.3.4.3.6 0 .2-.1.5-.2.6zm17.6 7.7c0 .5-.4.9-.9.9s-.9-.4-.9-.9.4-.9.9-.9.9.4.9.9zm20.5 2.3c-.3.3-.9.3-1.2 0-.3-.3-.3-.9 0-1.2.2-.2.4-.3.6-.3s.5.1.6.3c.4.3.4.8 0 1.2z"
		class="st0"/>
	<path d="M23.5 31.2v-9.9h5.8v1.2h-4.4v3.1h3.5v1.2h-3.5V30h4.6v1.2h-6z" class="st0"/>
	<path d="M39.9 25.9h-.2v.2h.2v-.2zm0-1.7V24h-.2v.2h.2zm0-1.6h-.2v.2h.2v-.2zm0-1.8v-.2h-.2v.2h.2zm4.7-.9l-.1-.1.1.1zm5.1-5.1l.1-.2-.1-.1-.1.1.1.2zm2.8-.5l.1.1-.1-.1zm0-3.4l-.2.1.2-.1zm-3.5 0l-.1-.1.1.1zm-.4 2.8l.1.1.1-.1-.1-.1-.1.1zm-5.1 5.1l-.1-.1.1.1zm-3.6.5h-.2v.2h.2v-.2zm-5.8-5.8h-.2v.2h.2v-.2zm0-6.9l-.1-.2h-.1v.1h.2zm-1.5 0h.2v-.1h-.1l-.1.1zm0 6.9v.2h.2v-.2h-.2zm-1.8 0h-.2v.2h.2v-.2zm-1.6 0v.2h.2v-.2h-.2zm-1.7 0h-.2v.2h.2v-.2zm-1.6 0v.2h.2v-.2h-.2zm-1.7 0H24v.2h.2v-.2zm-1.6 0v.2h.2v-.2h-.2zm-1.8 0h-.2v.2h.2v-.2zm-.9-4.7l-.2.2.2-.2zm-5.1-5.1l-.2-.1-.1.1.1.1.2-.1zM14.3.9l.1-.1-.1.1zm-3.4 0l-.1-.1.1.1zm0 3.5l-.1.1.1-.1zm2.8.4l.1-.1-.1-.1-.1.1.1.1zm5.1 5.1l-.1.1.1-.1zm.5 3.6v.2h.2v-.2h-.2zm-2.8.1v-.2.2zm.4 1.5v-.2.2zm21.4 21.4h.2-.2zm.5.9v-.2.2zm1-.6h-.2.2zm.1-2.7v-.2h-.2v.2h.2zm6.9 0l.2-.1v-.1h-.1v.2zm0-1.5v.2h.1v-.1l-.1-.1zm-6.9 0h-.2v.2h.2v-.2zm0-1.8v-.2h-.2v.2h.2zm0-1.6h-.2v.2h.2v-.2zm0-1.7v-.2h-.2v.2h.2zM50.1 12l.1.1-.1-.1zM13.2 3.3l.1.1-.1-.1zm-1.2 0l-.1.1.1-.1zM12 2l.1.1L12 2zm36.2 31.3h.2-.2zM42.5 49l-.1.1.1-.1zm-2.8-.4l-.1.1.1.1.1-.1-.1-.1zm-5.1-5.1l.1-.1-.1.1zm-.5-3.6v-.2h-.2v.2h.2zm2.8-.1v.2-.2zm.5-1h.2-.2zm-.9-.5v-.2.2zM15.1 16.9h-.2.2zm-.5-.9v-.2.2zm-1 .5h.2-.2zm-.1 2.8v.2h.2v-.2h-.2zm-6.9 0l-.2.1v.1h.1v-.2zm0 1.5v-.2h-.1v.1l.1.1zm6.9 0h.2v-.2h-.2v.2zm0 1.8v.2h.2v-.2h-.2zm0 1.6h.2V24h-.2v.2zm0 1.7v.2h.2v-.2h-.2zm0 1.6h.2v-.2h-.2v.2zm0 1.7v.2h.2v-.2h-.2zm0 1.6h.2v-.2h-.2v.2zm0 1.8v.2h.2v-.2h-.2zm-4.7.9l.2.2-.2-.2zm-5.1 5.1l-.1.2.1.1.1-.1-.1-.2zm-2.8.5L.8 39l.1.1zm0 3.4l.1-.1-.1.1zm3.5 0l.1.1-.1-.1zm.4-2.8l-.1-.1-.1.1.1.1.1-.1zm5.1-5.1l.1.1-.1-.1zm3.6-.5h.2v-.2h-.2v.2zm5.8 5.8h.2v-.2h-.2v.2zm0 6.9l.1.2h.1v-.1h-.2zm1.5 0h-.2v.1h.1l.1-.1zm0-6.9v-.2h-.2v.2h.2zm1.8 0h.2v-.2h-.2v.2zm1.6 0v-.2H24v.2h.2zm1.7 0h.2v-.2h-.2v.2zm1.6 0v-.2h-.2v.2h.2zm1.7 0h.2v-.2h-.2v.2zm1.6 0v-.2h-.2v.2h.2zm1.8 0h.2v-.2h-.2v.2zm.9 4.7l.1-.1-.1.1zm5.1 5.1l.2.1.1-.1-.1-.1-.2.1zm.5 2.8l.1-.1-.1.1zm3.4 0l-.1-.1.1.1zM5.2 20.1H5h.2zM3.3 41.4l-.1-.1.1.1zm16.8 6.8v.2-.2zm21.3 3.2l.1.1-.1-.1zm-1.2 0l-.2.1.2-.1zm0-1.3L40 50l.2.1zM23.5 31.2h-.2v.2h.2v-.2zm0-9.9v-.2h-.2v.2h.2zm5.8 0h.2v-.2h-.2v.2zm0 1.2v.2h.2v-.2h-.2zm-4.4 0v-.2h-.2v.2h.2zm0 3.1h-.2v.2h.2v-.2zm3.5 0h.2v-.2h-.2v.2zm0 1.2v.2h.2v-.2h-.2zm-3.5 0v-.2h-.2v.2h.2zm0 3.2h-.2v.2h.2V30zm4.6 0h.2v-.2h-.2v.2zm0 1.2v.2h.2v-.2h-.2zm22.9-5.5H39.9v.4h12.5v-.4zm-12.3.2v-1.8h-.4v1.8h.4zm-.2-1.5h3.4V24h-3.4v.4zm3.4 0c.5 0 1-.4 1-1h-.4c0 .3-.3.6-.6.6v.4zm1-1c0-.5-.4-1-1-1v.4c.3 0 .6.3.6.6h.4zm-1-1h-3.4v.4h3.4v-.4zm-3.2.2v-1.8h-.4v1.8h.4zm-.2-1.6h2.3v-.4h-2.3v.4zm2.4 0c.9 0 1.8-.4 2.5-1l-.3-.3c-.6.6-1.3.9-2.2.9v.4zm2.4-1l5.1-5.1-.3-.3-5.1 5.1.3.3zm4.9-5c.4.2.8.3 1.2.3v-.4c-.4 0-.7-.1-1-.2l-.2.3zm1.2.2c.7 0 1.4-.3 1.9-.8l-.3-.3c-.4.4-1 .7-1.6.7v.4zm1.8-.7c.5-.5.8-1.2.8-1.9H53c0 .6-.2 1.2-.7 1.6l.3.3zm.8-1.9c0-.7-.3-1.4-.8-1.9l-.3.3c.4.4.7 1 .7 1.6h.4zm-.8-1.9c-.5-.5-1.2-.8-1.9-.8v.4c.6 0 1.2.2 1.6.7l.3-.3zm-1.8-.7c-.7 0-1.4.3-1.9.8l.3.3c.4-.4 1-.7 1.6-.7V10zm-1.9.7c-.5.5-.8 1.2-.8 1.9h.4c0-.6.2-1.2.7-1.6l-.3-.3zm-.8 1.9c0 .4.1.8.3 1.2l.4-.2c-.2-.3-.2-.6-.2-1h-.5zm.3.9l-5.1 5.1.3.3 5.1-5.1-.3-.3zm-5.1 5.1c-.3.3-.7.4-1.1.4v.4c.5 0 1-.2 1.4-.6l-.3-.2zm-1 .5H40v.4h2.3v-.4zm-2.2.2v-1.7h-.4v1.7h.4zm0-1.7c0-2.4-1.9-4.3-4.3-4.3v.4c2.1 0 3.9 1.7 3.9 3.9h.4zm-4.3-4.3h-1.7v.4h1.7v-.4zm-1.5.2V6.6h-.4v6.9h.4zm-.1-6.7c1-.4 1.8-1.3 1.8-2.5h-.4c0 1-.6 1.8-1.5 2.1l.1.4zM36 4.3c0-1.5-1.2-2.6-2.6-2.6v.4c1.2 0 2.2 1 2.2 2.2h.4zm-2.7-2.6c-1.5 0-2.6 1.2-2.6 2.6h.4c0-1.2 1-2.2 2.2-2.2v-.4zm-2.6 2.6c0 1.2.8 2.1 1.8 2.5l.1-.4c-.9-.3-1.5-1.1-1.5-2.1h-.4zm1.7 2.3v6.9h.4V6.6h-.4zm.2 6.7h-1.8v.4h1.8v-.4zm-1.6.2v-3.4h-.4v3.4h.4zm0-3.4c0-.5-.4-1-1-1v.4c.3 0 .6.3.6.6h.4zm-1-1c-.5 0-1 .4-1 1h.4c0-.3.3-.6.6-.6v-.4zm-1 1v3.4h.4v-3.4H29zm.2 3.2h-1.8v.4h1.8v-.4zm-1.5.2V1h-.4v12.5h.4zm0-12.5c0-.5-.4-1-1-1v.4c.3 0 .6.3.6.6h.4zm-1-1c-.5 0-1 .4-1 1h.4c0-.3.3-.6.6-.6V0zm-1 1v12.5h.4V1h-.4zm.2 12.3h-1.8v.4h1.8v-.4zm-1.5.2v-3.4H24v3.4h.4zm0-3.4c0-.5-.4-1-1-1v.4c.3 0 .6.3.6.6h.4zm-1-1c-.5 0-1 .4-1 1h.4c0-.3.3-.6.6-.6v-.4zm-1 1v3.4h.4v-3.4h-.4zm.2 3.2h-1.8v.4h1.8v-.4zm-1.6.2v-2.3h-.4v2.3h.4zm0-2.4c0-.9-.4-1.8-1-2.5l-.3.4c.6.6.9 1.3.9 2.2h.4zm-1-2.4l-5.1-5.1-.3.3L19.7 9l.3-.3zm-5-4.9c.5-1 .3-2.2-.5-3l-.3.3c.7.7.8 1.7.4 2.6l.4.1zm-.5-3c-1-1-2.7-1-3.7 0l.2.3c.9-.9 2.3-.9 3.2 0l.3-.3zm-3.8 0c-1 1-1 2.7 0 3.7l.3-.3c-.9-.9-.9-2.3 0-3.2l-.3-.2zm0 3.7c.5.5 1.2.8 1.9.8v-.4c-.6 0-1.1-.2-1.6-.7l-.3.3zm1.9.8c.4 0 .8-.1 1.2-.3l-.2-.4c-.3.2-.7.2-1 .2v.5zm.9-.3l5.1 5.1.3-.3-5.1-5.1-.3.3zm5.1 5.1c.3.3.4.7.4 1.1h.4c0-.5-.2-1-.6-1.4l-.2.3zm.5 1v2.3h.4v-2.3h-.4zm.2 2.2h-1.7v.4h1.7v-.4zm-1.7 0c-.4 0-.7 0-1.1.1l.1.4c.3-.1.6-.1 1-.1v-.4zm-1.1.1c-.5.1-.8.7-.7 1.2l.4-.1c-.1-.3.1-.6.4-.7l-.1-.4zm-.7 1.2c.1.5.7.8 1.2.7l-.1-.4c-.3.1-.6-.1-.7-.4l-.4.1zm1.2.7c.2 0 .4-.1.6-.1v-.4c-.2 0-.5 0-.7.1l.1.4zm.6-.1h18.3v-.4H17.6v.4zm18.2 0c1.3 0 2.3 1.1 2.3 2.3h.4c0-1.5-1.2-2.7-2.7-2.7v.4zm2.4 2.4v18.3h.4V17.6h-.4zm0 18.2c0 .2 0 .4-.1.6l.4.1c.1-.2.1-.5.1-.7h-.4zm-.1.6c-.1.5.2 1.1.7 1.2l.1-.4c-.3-.1-.5-.4-.4-.7l-.4-.1zm.7 1.2h.2v-.4h-.1l-.1.4zm.2 0c.4 0 .8-.3.9-.7l-.4-.1c-.1.3-.3.4-.6.4v.4zm1-.7c.1-.3.1-.7.1-1.1h-.4c0 .3 0 .7-.1 1l.4.1zm.1-1.1v-1.7h-.4v1.7h.4zm-.2-1.5h6.9v-.4h-6.9v.4zm6.7-.1c.4 1 1.3 1.8 2.5 1.8v-.4c-1 0-1.8-.6-2.1-1.5l-.4.1zm2.5 1.8c1.5 0 2.6-1.2 2.6-2.6h-.4c0 1.2-1 2.2-2.2 2.2v.4zm2.6-2.7c0-1.5-1.2-2.6-2.6-2.6v.4c1.2 0 2.2 1 2.2 2.2h.4zm-2.6-2.6c-1.2 0-2.1.8-2.5 1.8l.4.1c.3-.9 1.1-1.5 2.1-1.5v-.4zm-2.3 1.7h-6.9v.4h6.9v-.4zm-6.7.2v-1.8h-.4v1.8h.4zm-.2-1.6h3.4v-.4h-3.4v.4zm3.4 0c.5 0 1-.4 1-1h-.4c0 .3-.3.6-.6.6v.4zm1-1c0-.5-.4-1-1-1v.4c.3 0 .6.3.6.6h.4zm-1-1h-3.4v.4h3.4V29zm-3.2.2v-1.8h-.4v1.8h.4zm-.2-1.5h12.5v-.4H39.9v.4zm12.5 0c.5 0 1-.4 1-1H53c0 .3-.3.6-.6.6v.4zm1-1c0-.5-.4-1-1-1v.4c.3 0 .6.3.6.6h.4zm-3.1-14.6c.1-.1.3-.2.5-.2v-.4c-.3 0-.6.1-.8.3l.3.3zm.5-.2c.2 0 .4.1.5.2l.3-.3c-.2-.2-.5-.3-.8-.3v.4zm.4.2c.1.1.2.3.2.5h.4c0-.3-.1-.6-.3-.8l-.3.3zm.2.5c0 .2-.1.4-.2.5l.3.3c.2-.2.3-.5.3-.8h-.4zm-.2.5c-.1.1-.3.2-.5.2v.4c.3 0 .6-.1.8-.3l-.3-.3zm-.4.2c-.2 0-.4-.1-.5-.2l-.3.3c.2.2.5.3.8.3v-.4zm-.5-.2c-.1-.1-.2-.3-.2-.5h-.4c0 .3.1.6.3.8l.3-.3zm-.2-.5c0-.2.1-.4.2-.5l-.3-.3c-.2.2-.3.5-.3.8h.4zm-37-9.5c-.3.3-.7.3-1 0l-.3.3c.4.4 1.1.4 1.5 0l-.2-.3zm-1 0c-.3-.3-.3-.7 0-1l-.3-.3c-.4.4-.4 1.1 0 1.5l.3-.2zm0-.9c.1-.2.3-.2.5-.2v-.4c-.3 0-.6.1-.8.3l.3.3zm.5-.2c.2 0 .4.1.5.2l.3-.3c-.2-.2-.5-.3-.8-.3V2zm.5.2c.3.3.3.7 0 1l.3.3c.4-.4.4-1.1 0-1.5l-.3.2zM33.3 5c-.4 0-.7-.3-.7-.7h-.4c0 .6.5 1.1 1.1 1.1V5zm-.6-.7c0-.4.3-.7.7-.7v-.4c-.6 0-1.1.5-1.1 1.1h.4zm.6-.7c.4 0 .7.3.7.7h.4c0-.6-.5-1.1-1.1-1.1v.4zm.7.7c0 .4-.3.7-.7.7v.4c.6 0 1.1-.5 1.1-1.1H34zm15.1 28.4c.4 0 .7.3.7.7h.4c0-.6-.5-1.1-1.1-1.1v.4zm.7.6c0 .4-.3.7-.7.7v.4c.6 0 1.1-.5 1.1-1.1h-.4zm-.7.7c-.4 0-.7-.3-.7-.7H48c0 .6.5 1.1 1.1 1.1V34zm-.7-.7c0-.4.3-.7.7-.7v-.4c-.6 0-1.1.5-1.1 1.1h.4zm-5.7 15.6c-.8-.8-2-1-3-.5l.2.4c.8-.4 1.9-.3 2.6.4l.2-.3zm-2.8-.5l-5.1-5.1-.3.3 5.1 5.1.3-.3zm-5.1-5.1c-.3-.3-.4-.7-.4-1.1H34c0 .5.2 1 .6 1.4l.2-.3zm-.5-1V40h-.4v2.3h.4zm-.2-2.2h1.7v-.4h-1.7v.4zm1.7 0c.4 0 .7 0 1.1-.1l-.1-.4c-.3.1-.6.1-1 .1v.4zm1.1-.1c.5-.1.8-.7.7-1.2l-.4.1c.1.3-.1.6-.4.7l.1.4zm.7-1.2c-.1-.5-.7-.8-1.2-.7l.1.4c.3-.1.6.1.7.4l.4-.1zm-1.2-.7c-.2 0-.4.1-.6.1v.4c.2 0 .5 0 .7-.1l-.1-.4zm-.6.1H17.6v.4h18.3v-.4zm-18.2 0c-1.3 0-2.3-1.1-2.3-2.3h-.4c0 1.5 1.2 2.7 2.7 2.7v-.4zm-2.4-2.4V17.6h-.4v18.3h.4zm0-18.2c0-.2 0-.4.1-.6l-.4-.1c-.1.2-.1.5-.1.7h.4zm.1-.6c.1-.5-.2-1.1-.7-1.2l-.1.4c.3.1.5.4.4.7l.4.1zm-.7-1.2c-.5-.1-1.1.2-1.2.7l.4.1c.1-.3.4-.5.7-.4l.1-.4zm-1.2.7c-.1.3-.1.7-.1 1.1h.4c0-.3 0-.7.1-1l-.4-.1zm-.1 1.1v1.7h.4v-1.7h-.4zm.2 1.5H6.6v.4h6.9v-.4zm-6.7.1c-.4-1-1.3-1.8-2.5-1.8v.4c1 0 1.8.6 2.1 1.5l.4-.1zm-2.5-1.8c-1.5 0-2.6 1.2-2.6 2.6h.4c0-1.2 1-2.2 2.2-2.2v-.4zm-2.6 2.7c0 1.5 1.2 2.6 2.6 2.6v-.4c-1.2 0-2.2-1-2.2-2.2h-.4zm2.6 2.6c1.2 0 2.1-.8 2.5-1.8l-.4-.1c-.3.9-1.1 1.5-2.1 1.5v.4zM6.6 21h6.9v-.4H6.6v.4zm6.7-.2v1.8h.4v-1.8h-.4zm.2 1.6h-3.4v.4h3.4v-.4zm-3.4 0c-.5 0-1 .4-1 1h.4c0-.3.3-.6.6-.6v-.4zm-1 1c0 .5.4 1 1 1V24c-.3 0-.6-.3-.6-.6h-.4zm1 1h3.4V24h-3.4v.4zm3.2-.2V26h.4v-1.8h-.4zm.2 1.5H1v.4h12.5v-.4zM1 25.7c-.5 0-1 .4-1 1h.4c0-.3.3-.6.6-.6v-.4zm-1 1c0 .5.4 1 1 1v-.4c-.3 0-.6-.3-.6-.6H0zm1 1h12.5v-.4H1v.4zm12.3-.2v1.8h.4v-1.8h-.4zm.2 1.5h-3.4v.4h3.4V29zm-3.4 0c-.5 0-1 .4-1 1h.4c0-.3.3-.6.6-.6V29zm-1 1c0 .5.4 1 1 1v-.4c-.3 0-.6-.3-.6-.6h-.4zm1 1h3.4v-.4h-3.4v.4zm3.2-.2v1.8h.4v-1.8h-.4zm.2 1.6h-2.3v.4h2.3v-.4zm-2.4 0c-.9 0-1.8.4-2.5 1l.4.3c.6-.6 1.3-.9 2.2-.9v-.4zm-2.4 1l-5.1 5.1.3.3L9 33.7l-.3-.3zm-4.9 5c-.4-.2-.8-.3-1.2-.3v.4c.4 0 .7.1 1 .2l.2-.3zm-1.2-.2c-.7 0-1.4.3-1.9.8l.3.3c.4-.4 1-.7 1.6-.7v-.4zm-1.8.7c-.5.5-.8 1.2-.8 1.9h.4c0-.6.2-1.2.7-1.6l-.3-.3zM0 40.8c0 .7.3 1.4.8 1.9l.3-.3c-.4-.4-.7-1-.7-1.6H0zm.8 1.9c.5.5 1.2.8 1.9.8V43c-.6 0-1.2-.2-1.6-.7l-.3.4zm1.8.7c.7 0 1.4-.3 1.9-.8l-.3-.3c-.4.4-1 .7-1.6.7v.4zm1.9-.7c.5-.5.8-1.2.8-1.9h-.4c0 .6-.2 1.2-.7 1.6l.3.3zm.8-1.9c0-.4-.1-.8-.3-1.2l-.4.2c.2.3.2.6.2 1h.5zm-.3-.9l5.1-5.1-.3-.3-5.1 5.1.3.3zm5.1-5.1c.3-.3.7-.4 1.1-.4V34c-.5 0-1 .2-1.4.6l.3.2zm1-.5h2.3v-.4h-2.3v.4zm2.2-.2v1.7h.4v-1.7h-.4zm0 1.7c0 2.4 1.9 4.3 4.3 4.3v-.4c-2.1 0-3.9-1.7-3.9-3.9h-.4zm4.3 4.3h1.7v-.4h-1.7v.4zm1.5-.2v6.9h.4v-6.9h-.4zm.1 6.7c-1 .4-1.8 1.3-1.8 2.5h.4c0-1 .6-1.8 1.5-2.1l-.1-.4zm-1.8 2.5c0 1.5 1.2 2.6 2.6 2.6v-.4c-1.2 0-2.2-1-2.2-2.2h-.4zm2.7 2.6c1.5 0 2.6-1.2 2.6-2.6h-.4c0 1.2-1 2.2-2.2 2.2v.4zm2.6-2.6c0-1.2-.8-2.1-1.8-2.5l-.1.4c.9.3 1.5 1.1 1.5 2.1h.4zM21 46.8v-6.9h-.4v6.9h.4zm-.2-6.7h1.8v-.4h-1.8v.4zm1.6-.2v3.4h.4v-3.4h-.4zm0 3.4c0 .5.4 1 1 1v-.4c-.3 0-.6-.3-.6-.6h-.4zm1 1c.5 0 1-.4 1-1H24c0 .3-.3.6-.6.6v.4zm1-1v-3.4H24v3.4h.4zm-.2-3.2H26v-.4h-1.8v.4zm1.5-.2v12.5h.4V39.9h-.4zm0 12.5c0 .5.4 1 1 1V53c-.3 0-.6-.3-.6-.6h-.4zm1 1c.5 0 1-.4 1-1h-.4c0 .3-.3.6-.6.6v.4zm1-1V39.9h-.4v12.5h.4zm-.2-12.3h1.8v-.4h-1.8v.4zm1.5-.2v3.4h.4v-3.4H29zm0 3.4c0 .5.4 1 1 1v-.4c-.3 0-.6-.3-.6-.6H29zm1 1c.5 0 1-.4 1-1h-.4c0 .3-.3.6-.6.6v.4zm1-1v-3.4h-.4v3.4h.4zm-.2-3.2h1.8v-.4h-1.8v.4zm1.6-.2v2.3h.4v-2.3h-.4zm0 2.4c0 .9.4 1.8 1 2.5l.3-.3c-.6-.6-.9-1.3-.9-2.2h-.4zm1 2.4l5.1 5.1.3-.3-5.1-5.1-.3.3zm5 4.9c-.5 1-.3 2.2.5 3l.3-.3c-.7-.7-.8-1.7-.4-2.6l-.4-.1zm.5 3c.5.5 1.2.8 1.9.8V53c-.6 0-1.1-.2-1.6-.7l-.3.3zm1.9.8c.7 0 1.3-.3 1.9-.8l-.3-.3c-.4.4-1 .7-1.6.7v.4zm1.9-.8c1-1 1-2.7 0-3.7l-.3.3c.9.9.9 2.3 0 3.2l.3.2zM4.3 20.7c-.4 0-.7-.3-.7-.7h-.4c0 .6.5 1.1 1.1 1.1v-.4zm-.7-.6c0-.4.3-.7.7-.7V19c-.6 0-1.1.5-1.1 1.1h.4zm.7-.7c.4 0 .7.3.7.7h.4c0-.6-.5-1.1-1.1-1.1v.4zm.7.7c0 .4-.3.7-.7.7v.4c.6 0 1.1-.5 1.1-1.1H5zM3.1 41.3c-.1.1-.3.2-.5.2v.4c.3 0 .6-.1.8-.3l-.3-.3zm-.5.2c-.2 0-.4-.1-.5-.2l-.3.3c.2.2.5.3.8.3v-.4zm-.4-.2c-.2-.1-.2-.3-.2-.5h-.4c0 .3.1.6.3.8l.3-.3zm-.2-.5c0-.2.1-.4.2-.5l-.3-.3c-.2.2-.3.5-.3.8H2zm.2-.5c.1-.1.3-.2.5-.2v-.4c-.3 0-.6.1-.8.3l.3.3zm.4-.2c.2 0 .4.1.5.2l.3-.3c-.2-.2-.5-.3-.8-.3v.4zm.5.2c.1.1.2.3.2.5h.4c0-.3-.1-.6-.3-.8l-.3.3zm.2.5c0 .2-.1.4-.2.5l.3.3c.2-.2.3-.5.3-.8h-.4zm17.4 8.3c0 .4-.3.7-.7.7v.4c.6 0 1.1-.5 1.1-1.1h-.4zm-.6.7c-.4 0-.7-.3-.7-.7H19c0 .6.5 1.1 1.1 1.1v-.4zm-.7-.7c0-.4.3-.7.7-.7V48c-.6 0-1.1.5-1.1 1.1h.4zm.7-.7c.4 0 .7.3.7.7h.4c0-.6-.5-1.1-1.1-1.1v.4zm21.2 2.8c-.3.3-.7.3-1 0l-.3.3c.4.4 1.1.4 1.5 0l-.2-.3zm-1 0c-.3-.3-.3-.7 0-1L40 50c-.4.4-.4 1.1 0 1.5l.3-.3zm0-.9c.1-.1.3-.2.5-.2v-.4c-.3 0-.6.1-.8.3l.3.3zm.5-.2c.2 0 .4.1.5.2l.3-.3c-.2-.2-.5-.3-.8-.3v.4zm.5.2c.3.3.3.7 0 1l.3.3c.4-.4.4-1.1 0-1.5l-.3.2zM23.7 31.2v-9.9h-.4v9.9h.4zm-.2-9.7h5.8v-.4h-5.8v.4zm5.6-.2v1.2h.4v-1.2h-.4zm.2 1h-4.4v.4h4.4v-.4zm-4.6.2v3.1h.4v-3.1h-.4zm.2 3.3h3.5v-.4h-3.5v.4zm3.3-.2v1.2h.4v-1.2h-.4zm.2 1h-3.5v.4h3.5v-.4zm-3.7.2V30h.4v-3.2h-.4zm.2 3.4h4.6v-.4h-4.6v.4zm4.4-.2v1.2h.4V30h-.4zm.2 1h-6v.4h6V31z" class="st2"/>
</svg>
