<svg id="solutions-ico-3" viewBox="0 0 58.6 49.6">
	<path d="M58.1 16L14.6 0l43.5 16zm0 0c.2.1.3.2.4.4.2.4.1.9-.4 1.2l-6.5 3.3-.1.1.1.2c.5 1.1.7 2.4.4 3.7-.6 3.3-3.9 5.6-7.3 4.9h-.2l-.1.2-.4 1.1c-.1.3-.5.6-.8.6-.1 0-.2 0-.3-.1l-9.1-3.3-.2-.1-.1.2-.7 2c-.4 1-1.1 1.8-2 2.2l-.1.1v11.9c0 1.6-1.3 3-3 3s-3-1.3-3-3v-1.3H10l-.1.1c-.7 1.5-2 2.6-3.7 3H6V48.8c0 .5-.4.9-.9.9H.9c-.5 0-.9-.4-.9-.9v-17c0-.5.4-.9.9-.9h4.3c.5 0 .9.4.9.9V34.2h.2c1.6.3 3 1.4 3.7 3l.1.1h14.7v-5.8l-.1-.1c-1.5-1-2.1-3-1.5-4.7l.7-2 .1-.2-.2-.1-10.1-3.7c-.5-.2-.7-.7-.5-1.1l1.1-3 .1-.2-.2-.1-5-1.8c-.4-.2-.7-.7-.5-1.1L13.5.5c.2-.4.7-.7 1.1-.5l43.5 16zM26.8 32.4l-.3-.1v4.9H29v-4.3h-.2c-.4 0-.8-.1-1.2-.2l-.8-.3zM4.1 47.8h.2V32.5H1.7V47.8H4.1zm4.5-6.5v-2.1c0-1.4-.9-2.7-2.3-3.2l-.3-.1V44.6l.3-.1c1.4-.5 2.3-1.8 2.3-3.2zm2-2.4h-.2V41.4H29V38.9H10.6zm16.1 4.3h-.2v1.3c0 .7.6 1.3 1.3 1.3s1.3-.6 1.3-1.3v-1.3H26.7zM32 27.7l.1-.2-.2-.1-.6-.2-5.4-2-.2-.1-.1.2-.7 2c-.4 1.2.2 2.5 1.4 3l2 .7c1.2.4 2.6-.2 3-1.4l.7-1.9zm10.5 1.8l.2.1.1-.2 2.2-6 .1-.2-.2-.1-8.4-3.1h-.1l-.1.1-3 2.8c-.2.2-.6.3-.9.2l-16.1-5.9-.3-.1v.2l-.7 2-.1.2.2.1 27.1 9.9zm7.6-4.3c.4-1.1.4-2.2-.1-3.2l-.1-.2-.2.1-2.7 1.3h-.1v.1l-1.7 4.5-.1.2h.3c2 .3 3.9-.9 4.7-2.8zm-3.8-3.5l8.9-4.5.4-.2-.4-.2L15 2h-.2l-.1.2-4.1 11-.1.2.2.1 21.5 7.8h.1l.1-.1 3-2.8c.2-.2.6-.3.9-.2l9.6 3.5h.4z" class="st0"></path>
	<path d="M21.6 14.6l-1.7-.6.6-1.6 1.6.6-.5 1.6zM25.6 16.1l-1.6-.6.6-1.6 1.6.6-.6 1.6zM29.6 17.5l-1.6-.6.6-1.6 1.6.6-.6 1.6z" class="st0"></path>
</svg>
