<svg id="solutions-ico-1" viewBox="0 0 52.3 52.3">
	<path d="M50.8 29.9l.1-.1V2.9c0-.8-.7-1.5-1.5-1.5H6.6c-.4 0-.7-.3-.7-.7-.1-.4.3-.7.7-.7h42.8c1.6 0 2.9 1.3 2.9 2.9v36.5c0 1-.6 2-1.5 2.5l.1.1h-.1c-.1.1-.2.1-.4.1-.3 0-.5-.1-.6-.4-.2-.3-.1-.8.3-1 .5-.3.7-.8.7-1.3v-8.1H46c-.4 0-.7-.3-.7-.7 0-.4.3-.7.7-.7h4.8z" class="st0"></path>
	<path d="M46.1 39c-1.6 0-2.9-1.3-2.9-2.9 0-1.6 1.3-2.9 2.9-2.9 1.6 0 2.9 1.3 2.9 2.9 0 1.6-1.3 2.9-2.9 2.9zm1.4-2.9c0-.8-.7-1.5-1.5-1.5s-1.5.7-1.5 1.5.7 1.5 1.5 1.5 1.5-.7 1.5-1.5zM1.6 31.3l-.1 8.1c0 .8.7 1.5 1.5 1.5h14.4c.4 0 .7.3.7.7 0 .4-.3.7-.7.7H2.9C1.3 42.4 0 41 0 39.4V2.9C0 1.3 1.3 0 2.9 0h4.4c.4 0 .7.3.7.7s-.2.8-.6.8H2.9c-.8 0-1.5.7-1.5 1.5V29.9h20.3c.4 0 .7.3.7.7s-.3.7-.7.7H1.6z" class="st0"></path>
	<path d="M39 38.8l7.4 2.3c2.2.7 3.7 2.6 3.7 4.9v4.4c0 1-.8 1.8-1.8 1.8h-5.2c.2-.2.4-.4.4-.7 0-.3-.1-.6-.4-.7h5.2c.2 0 .4-.2.4-.4V46c0-1.6-1.1-3.1-2.6-3.5v.1-.1l-7.8-2.3h-8.6l-7.8 2.3v.1-.1c-1.6.5-2.6 1.9-2.6 3.5v4.4c0 .2.2.4.4.4H25.1v-2.6c0-.4.3-.7.7-.7.4 0 .7.3.7.7v2.6h14.9v.7c0 .3.1.6.4.7H19.5c-1 0-1.8-.8-1.8-1.8V46c0-2.3 1.5-4.3 3.7-4.9l7.3-2.2h.1V36.1h-.1c-.6-.3-1.1-.6-1.6-1.1-1.3-1.1-2.2-2.7-2.5-4.5l-.9-6v-.1h-.1c-.9-.3-1.5-1.2-1.5-2.1 0-.6.2-1.2.7-1.6l1.6-1.6 1.1-3.4c.6-1.9 2.4-3.3 4.4-3.5h.1v-.1c.3-.6.9-1.1 1.7-1.1h4.4c.7 0 1.4.4 1.7 1.1v.1h.1c2 .2 3.7 1.6 4.4 3.5l1.1 3.4 1.6 1.6c.4.4.7 1 .7 1.6 0 1-.6 1.8-1.5 2.1h-.1v.1l-.9 6c-.3 1.7-1.1 3.3-2.5 4.5-.5.4-1 .8-1.6 1.1H39v2.7zm3.5 11.9h-1v-2.4c0-.4.3-.7.7-.7.4 0 .7.3.7.7v2.5c-.1-.1-.2-.1-.4-.1zm-1 .2h1c.4 0 .7.3.7.7s-.3.7-.7.7h-.3c-.4 0-.7-.3-.7-.7v-.7zM23.8 21.8c-.2.2-.2.4-.2.6 0 .5.4.8.8.8h19c.5 0 .8-.4.8-.8 0-.2-.1-.4-.2-.6L42.2 20c-.1-.1-.1-.2-.2-.3l-1.2-3.6c-.4-1.3-1.5-2.2-2.8-2.5h-.1v3.6c0 .4-.3.7-.7.7-.4 0-.7-.3-.7-.7v-4.4c0-.2-.2-.4-.4-.4h-4.4c-.2 0-.4.2-.4.4v4.4c0 .4-.3.7-.7.7s-.7-.3-.7-.7v-3.6h-.1c-1.3.3-2.4 1.2-2.8 2.5l-1.2 3.6c0 .1-.1.2-.2.3l-1.8 1.8zm13.8 15v-.1h-.1c-.5.1-1 .2-1.5.2-.4 0-.7-.3-.7-.7 0-.4.3-.7.7-.7 2.9 0 5.4-2.1 5.8-5l.9-5.6v-.1H25.2v.1l.9 5.6c.4 2.9 2.9 5 5.8 5h.9c.4 0 .7.3.7.7 0 .4-.3.7-.7.7h-.9c-.5 0-1-.1-1.5-.2h-.1v2H37.7V36.8zM3.3 36.1c0-1.6 1.3-2.9 2.9-2.9H14c1.6 0 2.9 1.3 2.9 2.9 0 1.6-1.3 2.9-2.9 2.9H6.3c-1.7 0-3-1.3-3-2.9zM14 37.6c.8 0 1.5-.7 1.5-1.5s-.7-1.5-1.5-1.5H6.3c-.8 0-1.5.7-1.5 1.5s.7 1.5 1.5 1.5H14z" class="st0"></path>
	<path d="M11.1 10.4v-.1H8c-.7 0-1.3-.6-1.3-1.3V5.7c0-.7.6-1.3 1.3-1.3h7.7c.7 0 1.3.6 1.3 1.3v.9h28c.4 0 .7.3.7.7v8.8c0 .4-.3.7-.7.7-.4 0-.7-.3-.7-.7v-8H16.9V9c0 .7-.6 1.3-1.3 1.3h-3.1v2.2h.1l3.7 1.8c.4.2.7.7.7 1.1v.4c0 .5-.3.9-.7 1.1l-3.7 1.8h-.1V21h3.1c.7 0 1.3.6 1.3 1.3v.9h2.6c.4 0 .7.3.7.7 0 .4-.3.7-.7.7h-2.6v.9c0 .7-.6 1.3-1.3 1.3H7.9c-.7 0-1.3-.6-1.3-1.3v-3.3c0-.7.6-1.3 1.3-1.3H11v-2.2h-.1L7.3 17c-.4-.2-.7-.7-.7-1.1v-.4c0-.5.3-.9.7-1.1l3.7-1.8h.1v-2.2zm4.4 12.2v-.1H8.1v3H15.5v-2.9zm0-7l-3.6-1.9-3.6 1.8h-.1V15.8h.1l3.6 1.8 3.6-1.8h.1v-.2h-.1zm-.1-6.8h.1V5.9H8.1v3H15.4zM21.7 39c-1.6 0-2.9-1.3-2.9-2.9 0-1.6 1.3-2.9 2.9-2.9 1.6 0 2.9 1.3 2.9 2.9.1 1.6-1.2 2.9-2.9 2.9zm0-1.4c.8 0 1.5-.7 1.5-1.5s-.7-1.5-1.5-1.5-1.5.7-1.5 1.5.7 1.5 1.5 1.5z" class="st0"></path>
</svg>
