<svg id="solutions-ico-2" viewBox="0 0 52.3 51.1">
	<path d="M3.4 37.4h1.5v1.5H3.4v-1.5zM6.8 37.4h1.5v1.5H6.8v-1.5zM23.7 39.1h1.5v1.5h-1.5v-1.5zM20.3 39.1h1.5v1.5h-1.5v-1.5zM3.4 24h1.5v1.5H3.4V24zM6.8 24h1.5v1.5H6.8V24zM23.7 25.7h1.5v1.5h-1.5v-1.5zM20.3 25.7h1.5v1.5h-1.5v-1.5zM3.4 10.5h1.5V12H3.4v-1.5zM6.8 10.5h1.5V12H6.8v-1.5zM23.7 12.2h1.5v1.5h-1.5v-1.5zM20.3 12.2h1.5v1.5h-1.5v-1.5z" class="st0"></path>
	<path d="M37.8 13.1l3.4-1.7h8.7c1.3 0 2.4 1.1 2.4 2.4v23.5c0 1.3-1.1 2.4-2.4 2.4H28.6v1.8c0 1.3-1.1 2.4-2.4 2.4H2.4c-1.3 0-2.4-1.1-2.4-2.4v-5C0 35.1 1.1 34 2.4 34h.9v-3.6h-.9C1.1 30.4 0 29.3 0 28v-5c0-1.3 1.1-2.4 2.4-2.4h.9V17h-.9c-1.3.1-2.4-1-2.4-2.4v-5c0-1.3 1.1-2.4 2.4-2.4h23.7c1.3 0 2.4 1.1 2.4 2.4v3.5H37.8zM5 17.1l-.1.1v3.5H23.7v-3.6H5zm0 13.4l-.1.1V34H23.7v-3.6H5zm23.6 7.6v.1h21.3c.5 0 .9-.4.9-.9V19.6H30.5v-1.5h20.3v-4.3c0-.5-.4-.9-.9-.9h-8.3l-3.4 1.7h-9.6v.1c0 1.3-1.1 2.4-2.4 2.4h-.9v3.6h.9c1.3 0 2.4 1.1 2.4 2.4v5c0 1.3-1.1 2.4-2.4 2.4h-.9V34h.9c1.3 0 2.4 1.1 2.4 2.4v1.7zM1.5 9.6v5c0 .5.4.9.9.9h23.7c.5 0 .9-.4.9-.9v-5c0-.5-.4-.9-.9-.9H2.4c-.5 0-.9.4-.9.9zm0 13.4v5c0 .5.4.9.9.9h23.7c.5 0 .9-.4.9-.9v-5c0-.5-.4-.9-.9-.9H2.4c-.5 0-.9.4-.9.9zm24.7 19.4c.5 0 .9-.4.9-.9v-5c0-.5-.4-.9-.9-.9H2.4c-.5 0-.9.4-.9.9v5c0 .5.4.9.9.9h23.8z" class="st0"></path>
	<path d="M40.7 14.7H49v1.5h-8.3v-1.5zM32.1 24.6H32V34.9h15.5V24.6H32.1zM49 23.1v13.2H30.5V23.1H49z" class="st0"></path>
	<path d="M33.9 26.5h11.7V28H33.9v-1.5zM33.9 29.9h11.7v1.5H33.9v-1.5zM37.2 7h-.1v2.1l-9.2-4.6L37.1 0v2.1h11v1.5H35.6V2.4l-.1.1-4 2-.2.1.2.1 4 2 .1.1V5.5h15.9V7H37.2zM42.3 44.1l.1-2.1 9.2 4.6-9.2 4.6V49h-8.5v-1.5h10v1.3l.1-.1 4-2 .2-.1-.2-.1-4-2-.1-.1v1.3H30.5v-1.5h11.8z" class="st0"></path>
</svg>
